<?xml version="1.0" encoding="UTF-8"?>
<!DOCTYPE svg PUBLIC "-//W3C//DTD SVG 1.1//EN" "http://www.w3.org/Graphics/SVG/1.1/DTD/svg11.dtd">
<svg xmlns="http://www.w3.org/2000/svg" xml:space="preserve" width="156px" height="55px" version="1.1" style="shape-rendering:geometricPrecision; text-rendering:geometricPrecision; image-rendering:optimizeQuality; fill-rule:evenodd; clip-rule:evenodd"
viewBox="0 0 4589 1617"
 xmlns:xlink="http://www.w3.org/1999/xlink">
 <defs>
  <style type="text/css">
   <![CDATA[
    .fil3 {fill:black}
    .fil0 {fill:#10ACE7}
    .fil4 {fill:black;fill-rule:nonzero}
    .fil2 {fill:url(#id0)}
    .fil1 {fill:url(#id1)}
   ]]>
  </style>
  <linearGradient id="id0" gradientUnits="userSpaceOnUse" x1="2241.18" y1="896.154" x2="702.406" y2="896.154">
   <stop offset="0" style="stop-opacity:1; stop-color:#FFA518"/>
   <stop offset="1" style="stop-opacity:1; stop-color:#F7CE18"/>
  </linearGradient>
  <linearGradient id="id1" gradientUnits="userSpaceOnUse" xlink:href="#id0" x1="2734.07" y1="896.154" x2="4057.92" y2="896.154">
  </linearGradient>
 </defs>
 <g id="Layer_x0020_1">
  <metadata id="CorelCorpID_0Corel-Layer"/>
  <g id="_819997216">
   <g>
    <path class="fil0" d="M1539 1187l47 6 0 288 -47 0 0 123 247 0 0 -111c-6,-24 -29,0 -35,-24 0,-76 -24,-270 65,-276 58,-6 58,59 58,111 6,53 0,112 0,165 -6,18 0,6 -11,12l-18 6 0 117 229 -6 6 -111 -35 -12c0,-88 -24,-276 64,-282 59,0 59,64 59,111 0,53 6,118 0,171 -18,6 -12,6 -35,6l6 123 241 -6 0 -117 -42 0c-5,-106 24,-306 -35,-376 -29,-41 -82,-59 -153,-47 -70,6 -94,70 -111,88 -24,-35 -24,-47 -53,-71 -59,-35 -135,-29 -188,12 -29,24 -29,47 -53,71l0 -89 -206 0 0 118z"/>
    <path class="fil0" d="M4183 1181c130,-41 130,270 47,306 -117,41 -123,-165 -105,-241 11,-41 17,-53 58,-65zm77 -82c-53,-65 -165,-65 -229,-18 -59,47 -89,165 -83,271 0,105 30,211 106,246 41,24 100,24 147,6 65,-23 70,-70 88,-94l6 94 194 -6 0 -117 -41 0 0 -611 -218 0 0 123 53 0 -6 135c0,0 0,0 0,0 0,0 -6,-6 -6,-6l-11 -23z"/>
    <polygon class="fil0" points="59,999 53,1475 0,1475 0,1604 311,1598 306,1475 223,1469 223,1310 288,1310 288,1387 394,1387 394,1116 288,1116 288,1187 223,1187 223,999 423,999 423,1069 552,1069 552,870 0,870 0,999 "/>
    <path class="fil0" d="M3337 1187l47 0 0 294 -47 0 6 123 241 0 0 -117 -35 -12c0,-59 0,-118 0,-176 0,-53 12,-106 64,-106 65,-6 65,53 65,111 -6,59 0,112 -6,171 -12,6 -23,0 -29,18l0 111 247 0 0 -123 -47 0c-6,-118 23,-312 -36,-388 -29,-35 -100,-53 -164,-35 -77,23 -71,58 -106,105l0 -94 -200 0 0 118z"/>
    <path class="fil0" d="M834 1369c-6,147 -105,147 -141,118 -29,-36 -11,-83 18,-100 29,-24 82,-24 123,-18zm-129 -135c12,-41 12,-88 76,-82 47,11 53,58 53,111 -82,0 -176,-6 -235,41 -117,83 -94,294 65,312 123,12 147,-65 176,-88l6 76 182 0 0 -123 -41 0c-12,-177 47,-365 -117,-417 -141,-53 -341,17 -318,170l153 0z"/>
    <path class="fil0" d="M3079 1369c-6,47 -12,77 -41,106 -77,82 -171,-35 -83,-88 24,-24 83,-24 124,-18zm-288 -129c247,-6 117,6 176,-65 12,-17 106,-70 106,88 -82,6 -171,-6 -229,41 -118,77 -100,300 64,312 124,12 153,-71 177,-88l0 76 188 -6 0 -117 -47 0c-12,-177 47,-365 -118,-417 -65,-24 -159,-18 -217,11 -47,18 -118,88 -100,165z"/>
    <path class="fil0" d="M1140 1187l0 294 -41 0 0 123 264 0 0 -123 -53 0c-23,-253 59,-235 159,-235l0 -188c-47,-18 -94,0 -118,23 -35,41 -35,77 -53,100l0 -112 -199 0 0 118 41 0z"/>
    <path class="fil0" d="M2491 1093l0 388 -41 0 0 123 253 -6 0 -117c-30,0 -41,0 -41,-12l0 -499 -212 0 0 117 41 6z"/>
    <polygon class="fil1" points="2673,870 4166,870 4166,923 2626,923 "/>
    <polygon class="fil2" points="617,870 2327,870 2309,923 617,923 "/>
   </g>
   <g>
    <path id="path4347" class="fil3" d="M4292 676l199 0 0 -115 -44 0 0 -468 -224 0 0 114 60 0 0 112c-35,-29 -76,-50 -121,-50 -130,0 -189,90 -189,210 0,107 67,209 182,209 55,3 100,-19 137,-59l0 47zm-76 -127c-42,0 -75,-33 -75,-75 0,-41 33,-76 75,-76 41,0 76,34 76,76 0,42 -35,75 -76,75z"/>
    <g>
     <path id="path4349" class="fil3" d="M559 256l0 -163 -145 0 0 44c-47,-44 -91,-57 -154,-57 -143,0 -223,90 -223,185 0,125 93,161 185,180 93,18 186,18 186,70 0,39 -44,47 -82,47 -27,0 -51,-5 -71,-16 -20,-12 -37,-30 -50,-54l-148 0 0 184 144 0 0 -47c40,46 100,59 155,59 126,0 221,-67 221,-196 0,-132 -92,-171 -184,-189 -92,-19 -184,-17 -184,-68 0,-32 38,-42 71,-42 31,0 57,5 79,17 22,11 39,26 54,46l146 0zm0 0l0 0 0 0z"/>
    </g>
    <g>
     <path id="path4351" class="fil3" d="M804 282l-190 0 0 114 43 0 0 165 -43 0 0 115 249 0 0 -115 -43 0 0 -123c0,-38 22,-47 48,-47 31,0 46,12 46,47l0 238 206 0 0 -115 -43 0 0 -123c0,-41 20,-48 46,-48 32,0 49,13 49,46l0 240 206 0 0 -115 -43 0 0 -165c0,-89 -49,-127 -124,-127 -53,0 -101,18 -140,55 -30,-39 -67,-57 -118,-55 -56,-1 -111,21 -149,63l0 -50zm0 0l0 0 0 0z"/>
    </g>
    <g>
     <path id="path4353" class="fil3" d="M1676 561l-46 0 0 -279 -208 0 0 114 45 0 0 165 -45 0 0 115 254 0 0 -115zm0 0l0 0 0 0z"/>
    </g>
    <g>
     <path id="path4355" class="fil3" d="M3189 561l-47 0 0 -279 -208 0 0 117 45 0 0 162 -45 0 0 115 255 0 0 -115zm0 0l0 0 0 0z"/>
    </g>
    <g>
     <path id="path4357" class="fil3" d="M1998 207l43 0 0 354 -45 0 0 115 254 0 0 -115 -46 0 0 -120c0,-49 36,-57 59,-57 24,0 53,8 53,57l0 235 214 0 0 -115 -46 0 0 -181c0,-58 -19,-111 -130,-111 -42,0 -79,4 -150,29l0 -205 -206 0 0 114zm0 0l0 0 0 0z"/>
    </g>
    <g>
     <path id="path4359" class="fil3" d="M3521 551c-15,24 -40,36 -68,36 -52,0 -79,-28 -77,-76l300 0c0,-159 -64,-242 -229,-242 -131,0 -240,73 -240,213 0,103 62,206 253,206 79,0 169,-32 202,-109l-141 -28zm-148 -105c0,-43 26,-79 79,-79 51,0 68,33 68,79l-147 0zm0 0l0 0 0 0z"/>
    </g>
    <g>
     <path id="path4361" class="fil3" d="M3695 207l49 0 0 354 -49 0 0 115 258 0 0 -115 -46 0 0 -468 -212 0 0 114zm0 0l0 0 0 0z"/>
    </g>
    <path id="path4363" class="fil3" d="M1542 236c-51,0 -89,-40 -89,-90 0,-49 39,-91 89,-91 49,0 92,40 92,91 0,50 -43,90 -92,90z"/>
    <g>
     <path id="path4365" class="fil3" d="M1895 106l0 176 55 0 0 114 -55 0 0 120c0,31 8,36 31,36l24 0 0 124 -120 0c-64,0 -98,-30 -98,-94l0 -186 -46 0 0 -114 46 0 0 -102c52,0 91,-28 102,-74l61 0zm0 0l0 0 0 0z"/>
    </g>
    <path id="path4367" class="fil4" d="M2844 220c-8,21 -14,45 -20,62l68 0 0 117 -93 0c-38,132 -66,232 -91,308 -24,72 -46,117 -76,159 -47,65 -122,85 -180,88 -36,2 -87,-8 -104,-25l35 -82c10,4 22,5 34,5 29,0 61,-10 86,-43 27,-35 41,-77 63,-152 34,-114 73,-258 73,-258l-97 0 0 -117 131 0c10,-29 27,-70 44,-108 0,0 19,-40 51,-79 33,-41 70,-74 126,-88 45,-11 82,-8 116,3 43,13 72,45 89,74 17,28 26,71 13,105 -13,33 -44,52 -70,49 -27,-3 -49,-19 -59,-39 -10,-21 -6,-45 -3,-51 4,-6 13,-16 13,-16 0,0 -2,-11 -14,-17 -7,-4 -37,-12 -72,14 -35,27 -52,60 -63,91z"/>
    <path id="path4977" class="fil3" d="M4543 100c-26,0 -47,19 -47,41 0,23 21,42 47,42 25,0 46,-19 46,-42 0,-22 -21,-41 -46,-41zm-1 6c22,0 40,16 40,35 0,21 -18,37 -39,37 -22,0 -40,-16 -40,-36 0,-20 18,-36 39,-36zm-17 58l9 0 0 -18c1,0 1,0 2,0 1,0 2,0 4,-1 10,17 14,20 24,20 2,0 3,0 3,-1l1 -2c-7,-1 -10,-4 -20,-19 8,-2 11,-6 11,-12 0,-4 -2,-8 -5,-10 -3,-2 -7,-3 -15,-3 -1,0 -2,0 -6,1 -4,0 -5,0 -8,0l0 45zm9 -40c2,0 3,0 5,0 8,0 11,2 11,8 0,6 -4,9 -13,9 -1,0 -2,0 -3,0l0 -17z"/>
   </g>
  </g>
 </g>
</svg>
