<?xml version="1.0" encoding="UTF-8"?>
<!DOCTYPE svg PUBLIC "-//W3C//DTD SVG 1.1//EN" "http://www.w3.org/Graphics/SVG/1.1/DTD/svg11.dtd">
<svg xmlns="http://www.w3.org/2000/svg" xml:space="preserve" width="152px" height="22px" version="1.1" style="shape-rendering:geometricPrecision; text-rendering:geometricPrecision; image-rendering:optimizeQuality; fill-rule:evenodd; clip-rule:evenodd"
viewBox="0 0 4500 664"
 xmlns:xlink="http://www.w3.org/1999/xlink">
 <defs>
  <style type="text/css">
   <![CDATA[
    .fil0 {fill:#E1690F;fill-rule:nonzero}
   ]]>
  </style>
 </defs>
 <g id="Layer_x0020_1">
  <metadata id="CorelCorpID_0Corel-Layer"/>
  <g id="_827245984">
   <path class="fil0" d="M222 161c-1,-1 0,-4 3,-8 2,-5 5,-10 8,-17 3,-7 6,-14 9,-22 3,-9 6,-18 7,-26 1,-9 1,-18 -1,-27 -1,-9 -5,-18 -11,-26 -3,-4 -9,-7 -16,-7 -6,-1 -14,0 -23,3 -9,3 -18,7 -27,12 -10,6 -18,12 -26,20 -8,7 -15,15 -20,24 -6,9 -9,18 -10,27 0,8 0,15 1,21 1,7 3,13 5,18 2,5 5,10 7,15 3,4 5,9 7,12 3,5 7,11 13,17 7,6 13,13 20,20 7,8 15,17 22,26 7,10 13,21 18,33 6,12 10,26 12,41 2,15 2,31 -1,49 -4,27 -10,49 -19,67 -8,17 -18,31 -28,42 -10,11 -20,19 -31,23 -10,5 -18,8 -25,10 -6,1 -12,2 -19,3 -8,1 -15,0 -23,-1 -8,-1 -16,-4 -25,-7 -8,-4 -15,-10 -22,-18 -7,-9 -13,-18 -17,-29 -4,-9 -7,-19 -9,-30 -2,-12 -1,-24 3,-37 3,-3 6,-6 9,-8 3,-3 6,-5 10,-7 3,-2 7,-4 11,-5 5,-2 9,-3 14,-4 4,-1 8,-1 12,-2 5,0 9,1 13,2 -5,6 -9,12 -11,17 -2,3 -3,6 -4,8 -1,7 -1,15 -1,24 1,10 3,19 6,28 3,8 8,16 15,22 6,6 15,10 25,10 27,1 49,-20 67,-61 6,-13 9,-26 9,-39 0,-13 -1,-26 -5,-38 -3,-12 -7,-24 -13,-34 -5,-11 -11,-20 -17,-27 -6,-8 -12,-16 -20,-24 -9,-9 -16,-19 -24,-29 -8,-10 -15,-22 -21,-34 -7,-12 -11,-25 -13,-39 -3,-20 -1,-39 6,-55 6,-17 15,-31 26,-44 12,-12 24,-23 37,-30 14,-8 26,-13 36,-15 57,-12 95,-2 113,29 7,11 11,24 12,37 1,13 0,25 -2,37 -3,11 -5,20 -9,28 -3,8 -5,12 -6,13 -3,2 -6,4 -11,7 -4,2 -12,4 -22,7 -3,0 -6,1 -9,1 -2,0 -5,-1 -8,-1 -3,0 -5,-1 -7,-2zm340 128c2,-3 5,-5 7,-5 3,0 5,1 7,2 1,2 2,4 2,8 0,3 -2,6 -5,10 -6,10 -14,19 -23,29 -9,10 -19,19 -29,29 -10,9 -20,18 -31,26 -10,8 -20,15 -29,20 -11,6 -20,9 -28,9 -7,0 -14,-4 -21,-14 -7,-8 -10,-17 -10,-26 1,-10 3,-21 7,-36 2,-9 6,-19 10,-32 5,-12 8,-24 11,-35 2,-12 3,-21 2,-29 -1,-8 -6,-12 -14,-12 -5,0 -12,2 -18,6 -7,3 -13,9 -20,15 -7,6 -13,13 -19,21 -6,8 -11,15 -16,23 -3,14 -6,28 -9,41 -2,12 -5,24 -7,37 -3,14 -6,26 -8,36 -2,2 -5,3 -7,4 -3,0 -5,1 -7,1 -3,0 -5,0 -8,-1 -2,0 -5,-2 -8,-3 -2,-1 -4,-3 -6,-6 -2,-2 -4,-5 -5,-9 16,-66 29,-119 38,-159 9,-40 17,-70 22,-91 5,-25 9,-43 11,-52 1,-7 2,-14 3,-20 1,-6 1,-12 1,-18 0,-6 0,-11 -2,-16 3,-2 6,-4 10,-5 3,-1 7,-2 10,-2 4,-1 8,-2 12,-3 3,-1 7,-1 10,-1 3,0 6,0 8,1 3,0 4,1 5,3 2,2 3,5 3,11 0,5 -1,11 -1,16 -2,7 -3,15 -5,22 -8,29 -16,57 -25,85 -10,27 -18,56 -26,87 5,-7 10,-14 17,-22 6,-7 13,-14 21,-20 7,-7 16,-12 24,-16 9,-4 18,-6 27,-6 5,0 10,1 15,2 4,2 8,5 11,8 4,4 6,9 8,15 2,7 3,14 2,24 0,5 0,11 -2,17 -1,6 -3,13 -5,20 -2,8 -5,16 -8,25 -3,9 -7,19 -12,31 -3,8 -6,15 -8,21 -1,5 -1,10 2,15 3,5 9,7 19,4 9,-3 23,-13 42,-28 4,-3 9,-8 15,-13 5,-6 10,-11 15,-17 5,-5 10,-10 14,-15 4,-5 8,-9 11,-12zm97 -198c-2,4 -4,8 -7,12 -3,4 -6,7 -10,9 -4,2 -7,4 -11,4 -4,1 -7,0 -10,-2 -7,-5 -11,-12 -12,-18 0,-7 2,-13 5,-19 4,-6 8,-11 14,-15 5,-4 10,-6 13,-7 4,-1 8,0 10,2 3,3 5,6 6,9 2,4 3,8 3,13 0,5 0,9 -1,12zm-74 114c1,-2 5,-4 10,-5 5,-1 10,-3 15,-4 6,0 11,-1 15,-1 5,0 7,0 8,0 0,0 -1,4 -3,11 -2,8 -5,16 -8,26 -3,9 -6,19 -10,29 -4,10 -6,19 -8,25 -2,7 -4,14 -6,22 -3,8 -5,16 -7,23 -2,8 -3,15 -4,22 -1,7 0,12 1,16 2,4 4,7 6,8 2,2 5,3 7,3 7,0 16,-4 27,-12 11,-8 22,-17 33,-28 12,-11 22,-22 32,-33 9,-11 17,-20 21,-27 3,-4 6,-6 9,-7 3,-1 6,-1 8,0 2,2 3,4 3,7 0,3 -1,7 -4,11 -5,11 -14,22 -25,36 -11,14 -23,27 -35,40 -13,12 -25,23 -37,32 -12,9 -22,14 -29,14 -6,0 -12,-1 -18,-3 -6,-2 -11,-5 -16,-10 -5,-4 -9,-8 -12,-14 -3,-6 -5,-11 -5,-17 -2,-9 -2,-22 0,-37 1,-16 3,-31 5,-48 3,-16 7,-31 11,-46 5,-15 10,-26 16,-33zm68 430c-3,-1 -5,-3 -8,-5 -2,-1 -4,-4 -6,-6 -2,-3 -4,-6 -6,-10 10,-38 19,-72 26,-100 7,-28 13,-52 18,-71 5,-22 10,-40 14,-55 3,-14 7,-29 10,-43 3,-12 6,-26 10,-40 3,-14 6,-28 9,-40 4,-14 6,-25 7,-34 0,-8 -2,-15 -9,-21 5,-4 9,-7 14,-9 4,-2 8,-3 12,-4 4,-1 7,-1 11,-1 10,1 16,4 18,9 3,6 3,14 1,26 0,2 -1,3 -1,5 0,1 0,2 0,4 5,-6 11,-12 17,-17 6,-5 12,-10 18,-14 6,-5 13,-8 19,-11 7,-3 13,-4 19,-4 9,0 15,2 20,6 6,4 10,10 13,17 2,6 4,14 5,22 1,9 1,17 0,25 0,9 -1,19 -4,29 -3,10 -6,20 -11,30 -5,10 -10,21 -16,31 -6,10 -13,19 -19,27 1,1 2,1 2,1 1,0 1,1 1,1 0,0 0,0 1,0 0,0 1,1 3,1 8,0 17,-3 25,-7 9,-4 17,-10 25,-16 9,-7 16,-14 24,-22 8,-8 15,-15 21,-23 6,-7 12,-14 16,-19 4,-6 7,-10 9,-13 3,-4 6,-6 9,-7 2,-1 4,-2 5,0 2,1 3,3 3,6 0,3 -2,7 -4,11 -1,3 -4,9 -9,16 -4,7 -10,15 -17,24 -7,9 -14,18 -23,28 -9,9 -18,18 -28,26 -9,8 -19,14 -29,19 -11,6 -21,8 -30,8 -5,0 -9,0 -11,0 -3,-1 -6,-1 -8,-2 -2,-1 -4,-2 -5,-3 -2,-1 -4,-2 -7,-3 -6,5 -13,9 -19,12 -7,2 -14,4 -20,4 -6,0 -12,-1 -16,-3 -5,-2 -8,-5 -11,-8 -3,-4 -5,-7 -7,-12 -2,-4 -3,-8 -4,-12 -1,2 -1,3 -1,4 0,1 -1,3 -1,4 -4,18 -9,37 -13,60 -4,19 -9,43 -14,70 -6,28 -12,59 -18,95 -2,9 -6,15 -11,16 -6,2 -12,1 -19,-2zm98 -332c-2,6 -4,13 -6,21 -2,8 -4,18 -7,29 3,-2 6,-4 10,-5 3,-1 7,-1 11,-1 4,0 9,2 15,6 6,4 13,8 22,13 5,-7 11,-14 16,-22 6,-8 12,-16 16,-25 5,-8 9,-17 13,-26 3,-9 5,-17 5,-26 1,-10 0,-19 -3,-25 -4,-6 -9,-9 -16,-9 -12,0 -23,7 -37,20 -13,13 -26,30 -39,50zm437 79c0,-8 1,-16 2,-26 2,-9 4,-19 6,-29 3,-11 5,-21 8,-30 2,-10 5,-18 6,-26 2,-9 2,-16 0,-21 -3,-5 -7,-8 -13,-8 -3,0 -9,3 -17,8 -8,5 -17,13 -27,26 -10,12 -20,29 -29,49 -10,21 -17,48 -22,80 -7,4 -13,6 -20,7 -3,1 -6,1 -8,2 -7,0 -12,-1 -14,-4 -2,-3 -2,-9 1,-19 1,-5 4,-13 8,-25 4,-11 7,-23 11,-36 3,-13 6,-26 9,-39 3,-13 4,-24 4,-34 0,-7 -1,-11 -3,-14 -3,-2 -6,-3 -10,-3 -3,0 -9,1 -16,5 -8,4 -16,10 -25,21 -10,10 -19,24 -28,43 -9,18 -17,42 -23,71l0 -1c-1,3 -2,6 -2,9 -1,2 -2,5 -2,8 0,3 -1,5 -2,8l-26 12c-2,0 -4,1 -7,1 -3,1 -5,0 -8,-1 -2,-1 -4,-4 -5,-8 -1,-4 0,-10 1,-17l34 -140c1,-5 2,-9 3,-14 1,-4 1,-7 1,-11 0,-4 0,-7 -1,-9 6,-3 12,-5 16,-7 5,-1 9,-2 12,-3 3,-1 6,-2 9,-2 11,0 15,10 11,30 -2,6 -4,14 -6,25 6,-9 14,-17 21,-24 8,-8 16,-15 23,-21 8,-6 16,-11 24,-14 8,-4 16,-6 24,-6 6,0 11,2 15,6 4,3 8,8 10,14 2,6 4,13 4,21 0,8 0,16 -1,24 6,-7 12,-15 19,-22 7,-8 14,-15 22,-21 8,-6 15,-11 24,-15 8,-4 16,-6 24,-6 10,0 17,3 23,9 5,5 8,13 10,22 2,9 3,18 2,29 -1,10 -3,20 -5,30l-18 72c-4,18 0,27 11,27 9,0 19,-5 30,-13 10,-9 21,-19 31,-31 10,-12 20,-24 29,-36 9,-13 16,-23 22,-30 2,-3 5,-4 7,-4 2,-1 4,0 6,1 1,1 2,3 2,6 1,3 0,7 -2,11 -8,12 -16,26 -27,41 -10,15 -21,30 -34,43 -12,13 -25,24 -39,33 -14,9 -28,13 -43,13 -5,0 -10,0 -15,-1 -5,-1 -9,-3 -13,-6 -5,-3 -8,-7 -10,-12 -3,-4 -4,-11 -4,-18zm386 -87c-10,16 -23,31 -36,46 -14,15 -28,28 -43,40 -15,11 -31,21 -47,28 -16,7 -31,10 -46,10 -8,0 -16,-1 -25,-5 -9,-4 -18,-10 -25,-18 -8,-7 -14,-18 -18,-30 -5,-13 -6,-28 -4,-46 1,-14 6,-30 13,-46 8,-16 18,-31 29,-45 11,-13 24,-24 38,-33 14,-9 28,-14 42,-14 14,0 24,4 30,10 6,7 8,16 8,26 -1,11 -4,21 -10,30 -5,9 -11,18 -18,25 -7,8 -15,15 -23,21 -8,6 -15,11 -23,16 -7,6 -15,11 -22,15 -7,5 -13,10 -19,14 1,8 2,16 5,22 3,6 7,11 11,15 4,4 9,6 15,8 5,1 11,2 16,2 12,0 25,-4 38,-11 14,-8 26,-17 39,-28 13,-11 25,-22 35,-34 11,-12 20,-22 28,-31 2,-2 5,-4 7,-5 3,0 5,0 7,1 1,2 2,4 2,7 0,3 -1,6 -4,10zm-137 -82c-4,0 -9,2 -15,6 -6,5 -12,11 -17,19 -6,8 -11,18 -16,29 -5,12 -9,25 -12,40 5,-3 9,-6 14,-10 5,-3 10,-7 15,-11 16,-12 26,-22 32,-31 6,-9 10,-16 11,-23 0,-7 0,-12 -3,-15 -2,-3 -5,-4 -9,-4zm258 207c-9,0 -16,-2 -21,-5 -6,-3 -11,-7 -15,-12 -3,-5 -5,-10 -7,-17 -1,-7 0,-14 2,-21 1,-5 2,-12 5,-20 2,-9 5,-18 8,-28 2,-9 5,-19 7,-29 2,-10 4,-19 5,-27 0,-8 0,-14 -1,-20 -2,-5 -5,-7 -10,-7 -5,0 -11,2 -17,5 -6,4 -12,9 -19,16 -6,6 -12,13 -18,22 -7,8 -13,17 -19,26 -3,12 -6,22 -8,32 -2,9 -4,17 -5,24 -2,8 -4,14 -5,19 -1,6 -3,11 -4,16 -1,4 -4,7 -9,11 -6,3 -11,6 -18,8 -6,2 -11,3 -15,3 -5,0 -7,-1 -6,-5 0,-2 2,-7 4,-14 1,-8 4,-16 6,-27 3,-10 6,-21 9,-32 3,-11 5,-22 8,-33 2,-8 4,-17 6,-27 2,-8 4,-18 6,-30 3,-11 6,-24 10,-37 2,-2 5,-4 8,-5 2,-2 5,-3 8,-3 3,-1 6,-2 9,-2 3,0 6,0 8,0 3,0 6,1 8,2 3,1 5,2 7,4 -1,2 -2,6 -3,10 -2,5 -3,10 -5,15 -1,5 -3,11 -5,17 5,-6 10,-13 16,-19 6,-7 12,-13 19,-18 7,-6 15,-10 22,-13 8,-4 16,-5 24,-5 7,0 13,1 19,5 5,4 9,10 12,17 3,7 5,15 6,25 0,9 -1,20 -4,31l-6 24c-2,7 -4,16 -7,26 -3,10 -6,22 -10,34 -2,8 -3,14 -2,20 0,6 4,9 10,9 7,0 15,-4 24,-12 10,-8 20,-17 30,-29 10,-11 20,-22 29,-34 8,-11 15,-20 20,-28 3,-4 6,-7 9,-9 3,-1 5,-1 7,0 1,1 2,3 2,7 0,4 -1,8 -4,14 -3,5 -7,12 -12,20 -5,8 -11,17 -18,26 -7,9 -15,19 -23,28 -8,10 -17,18 -26,26 -9,8 -18,14 -26,19 -9,5 -17,7 -25,7z"/>
   <path class="fil0" d="M1986 271c2,-2 4,-3 6,-4 2,0 4,0 6,1 1,1 2,3 2,5 0,3 -1,6 -3,10 -7,14 -16,29 -28,44 -12,16 -24,31 -37,45 -12,13 -25,25 -37,33 -12,9 -22,14 -31,14 -11,0 -21,-2 -29,-7 -8,-5 -14,-10 -19,-17 -4,-7 -7,-14 -9,-22 -2,-8 -2,-16 -1,-23 0,-5 1,-16 3,-30 2,-15 5,-32 9,-52 3,-19 7,-40 12,-62 4,-23 9,-44 14,-65 -6,1 -12,2 -18,2 -6,1 -12,1 -17,1 -11,0 -22,-1 -32,-4 -10,-2 -18,-5 -23,-7 -3,-2 -4,-4 -4,-7 1,-2 2,-5 4,-8 1,-2 4,-5 6,-7 3,-2 5,-3 8,-3 6,1 14,2 21,2 8,1 17,1 26,1 7,-1 13,-1 20,-2 6,-1 12,-2 18,-3 5,-17 9,-32 14,-44 4,-13 8,-22 12,-27 1,-2 3,-3 7,-4 4,-2 8,-3 12,-3 4,-1 8,-1 12,0 4,0 7,2 9,4 2,3 2,10 2,22 0,12 -2,27 -6,45 15,0 28,1 40,2 12,2 22,4 30,6 8,2 15,4 20,5 5,2 8,4 11,4 2,1 4,3 4,6 0,3 -1,6 -2,9 -1,3 -3,5 -6,7 -3,3 -6,3 -10,3 -3,-1 -7,-2 -12,-3 -4,-1 -9,-2 -16,-2 -6,-1 -13,-2 -22,-2 -8,-1 -18,-1 -30,-1 -2,0 -4,0 -7,0 -3,0 -6,0 -8,0 -2,6 -3,11 -4,17 -2,5 -3,11 -5,17 -5,15 -10,30 -16,47 -6,15 -12,31 -20,50 -7,19 -16,39 -25,61 -2,15 -2,27 1,35 3,8 6,14 10,17 4,4 10,6 17,7 5,0 12,-2 19,-6 8,-4 16,-11 24,-18 8,-7 17,-16 25,-25 9,-9 16,-17 23,-26 8,-8 14,-16 19,-23 6,-7 9,-12 11,-15zm205 -117c-1,6 -4,16 -6,28 -3,11 -6,25 -9,40 -3,16 -6,32 -9,49 -4,17 -7,34 -10,50 -2,16 -5,32 -7,46 -2,15 -3,27 -3,37 -1,11 -1,22 0,33 0,9 1,19 1,29 1,10 3,19 5,27 -6,3 -11,5 -16,6 -4,1 -8,2 -11,3 -3,1 -6,1 -9,1 -3,0 -6,0 -10,-1 -4,0 -8,-2 -11,-6 -3,-3 -6,-8 -8,-15 -2,-6 -3,-16 -2,-29 0,-9 2,-19 4,-32 2,-12 5,-26 8,-42 4,-15 7,-30 11,-47 4,-16 8,-32 12,-47 4,-16 8,-31 11,-44 4,-14 7,-26 9,-36 3,-13 7,-28 11,-45 7,-29 17,-73 30,-132 3,-2 6,-3 8,-5 3,-2 6,-3 8,-4 2,-1 5,-2 7,-3 12,-4 20,-5 25,-2 5,3 7,10 8,19 0,7 1,16 2,28 2,12 3,26 4,41 1,15 2,30 3,46 0,16 1,31 1,44 0,9 0,20 0,32 1,12 1,25 2,39 1,13 1,27 2,41 2,14 3,28 4,40 2,13 3,25 5,36 1,10 3,19 5,26 1,3 1,6 2,8 1,3 2,5 3,7 2,-8 4,-18 7,-30 3,-12 5,-24 8,-38 3,-13 6,-27 9,-41 3,-14 6,-27 8,-40 2,-10 4,-23 6,-38 2,-16 4,-33 7,-51 -4,-2 -8,-3 -11,-5 -3,-1 -6,-3 -10,-5 -3,-2 -6,-4 -8,-7 1,-5 1,-8 2,-11 0,-2 2,-2 5,0 2,1 5,2 10,4 4,1 9,2 15,3 2,-10 4,-20 7,-30 2,-10 4,-20 7,-29 4,-15 8,-29 13,-41 5,-13 11,-23 18,-32 6,-8 14,-15 23,-20 9,-4 19,-7 31,-7 11,0 20,4 27,14 7,9 10,24 9,47 -1,17 -4,32 -11,45 -6,14 -13,25 -22,36 -9,10 -19,18 -30,25 -11,6 -21,11 -30,14 -4,17 -7,33 -9,50 -3,17 -6,34 -9,50 -2,16 -5,31 -8,45 -2,14 -5,27 -8,38 -2,11 -5,22 -8,35 -2,10 -5,23 -9,37 -3,14 -7,28 -11,43 -1,4 -3,7 -5,9 -2,2 -5,4 -7,5 -2,2 -5,4 -7,5 -7,3 -13,3 -18,1 -5,-1 -10,-6 -14,-14 -4,-8 -7,-18 -10,-31 -3,-12 -6,-25 -10,-39 -3,-16 -5,-32 -7,-50 -1,-18 -3,-37 -4,-55 -1,-19 -1,-38 -1,-56 -1,-19 -2,-36 -3,-53 -1,-21 -3,-40 -5,-57 -2,-17 -4,-32 -6,-43 -1,7 -3,15 -5,24 -1,9 -3,18 -6,27zm180 -23c-1,7 -3,14 -4,20 9,-5 17,-12 24,-19 8,-8 14,-16 19,-25 6,-8 10,-17 13,-25 3,-9 5,-17 5,-24 0,-5 0,-9 -1,-12 -1,-3 -4,-4 -7,-4 -2,0 -5,1 -8,2 -4,2 -8,7 -13,13 -4,6 -9,15 -14,27 -5,12 -9,28 -14,47zm192 190c-4,14 -8,27 -15,38 -6,12 -13,22 -21,31 -9,9 -18,15 -29,20 -10,5 -22,7 -34,7 -15,0 -26,-3 -35,-9 -8,-6 -14,-14 -18,-23 -4,-10 -7,-20 -8,-31 -1,-11 -1,-21 -1,-31 0,-7 1,-14 2,-22 2,-9 4,-17 7,-26 3,-8 6,-17 11,-25 4,-9 10,-17 16,-24 2,-6 5,-11 10,-16 4,-4 9,-8 15,-11 6,-3 12,-6 19,-7 7,-2 13,-3 20,-3 1,0 2,0 3,1 1,0 2,1 3,1 4,0 10,2 17,5 7,3 14,8 21,15 6,6 12,14 16,24 5,10 7,22 7,36 0,2 0,6 0,10 -1,4 -1,8 -1,10 8,-3 17,-7 25,-11 9,-5 18,-10 26,-15 9,-5 17,-10 24,-16 7,-5 13,-10 17,-14 3,-3 6,-5 9,-6 2,0 4,1 5,3 1,1 2,4 1,7 -1,3 -3,7 -6,11 -2,2 -6,6 -14,13 -7,6 -16,13 -26,20 -10,8 -21,15 -32,22 -12,8 -23,13 -34,16zm-91 -81c-1,3 -1,7 -1,10 0,6 0,12 1,18 1,6 2,12 5,17 3,5 8,9 14,13 6,3 15,5 26,5 2,0 4,0 5,-1 2,0 4,0 6,0 1,-5 2,-9 3,-13 0,-4 1,-7 1,-10 1,-7 1,-14 0,-21 -1,-7 -2,-13 -4,-19 -2,-6 -5,-11 -8,-15 -3,-3 -6,-5 -11,-5 -6,0 -13,2 -19,5 -6,4 -12,9 -18,16zm-34 94c0,7 1,13 1,19 1,7 2,12 5,17 2,5 5,9 8,12 4,3 8,4 14,4 6,0 12,-1 18,-4 5,-3 10,-7 14,-12 4,-5 8,-10 12,-17 3,-6 6,-12 8,-19 -2,0 -4,0 -7,1 -2,0 -5,0 -7,0 -14,0 -26,-4 -36,-12 -9,-8 -17,-18 -22,-31 -2,8 -4,15 -6,22 -1,7 -2,14 -2,20zm380 -63c1,-2 3,-3 5,-4 3,0 5,0 6,1 1,1 2,3 2,5 1,3 0,6 -3,10 -7,14 -16,29 -28,44 -11,16 -24,31 -36,45 -13,13 -26,25 -38,33 -12,9 -22,14 -30,14 -12,0 -22,-2 -30,-7 -8,-5 -14,-10 -18,-17 -5,-7 -8,-14 -10,-22 -1,-8 -2,-16 -1,-23 0,-5 1,-16 4,-30 2,-15 4,-32 8,-52 4,-19 8,-40 12,-62 5,-23 9,-44 14,-65 -6,1 -12,2 -18,2 -6,1 -12,1 -16,1 -12,0 -23,-1 -33,-4 -10,-2 -18,-5 -23,-7 -2,-2 -4,-4 -3,-7 0,-2 1,-5 3,-8 2,-2 4,-5 7,-7 2,-2 5,-3 7,-3 7,1 14,2 22,2 8,1 16,1 25,1 7,-1 14,-1 20,-2 6,-1 12,-2 18,-3 5,-17 10,-32 14,-44 4,-13 8,-22 12,-27 1,-2 4,-3 7,-4 4,-2 8,-3 12,-3 5,-1 9,-1 13,0 4,0 6,2 8,4 2,3 3,10 2,22 0,12 -2,27 -6,45 15,0 29,1 40,2 12,2 22,4 30,6 8,2 15,4 20,5 5,2 9,4 11,4 3,1 4,3 4,6 0,3 0,6 -1,9 -2,3 -4,5 -7,7 -3,3 -6,3 -9,3 -4,-1 -8,-2 -12,-3 -5,-1 -10,-2 -16,-2 -7,-1 -14,-2 -23,-2 -8,-1 -18,-1 -30,-1 -2,0 -4,0 -7,0 -2,0 -5,0 -8,0 -2,6 -3,11 -4,17 -1,5 -3,11 -5,17 -5,15 -10,30 -16,47 -6,15 -12,31 -19,50 -8,19 -16,39 -26,61 -2,15 -2,27 1,35 3,8 6,14 10,17 5,4 10,6 17,7 6,0 12,-2 20,-6 7,-4 15,-11 24,-18 8,-7 16,-16 24,-25 9,-9 17,-17 24,-26 7,-8 13,-16 18,-23 6,-7 10,-12 12,-15zm85 -180c-1,4 -3,8 -6,12 -3,4 -6,7 -10,9 -4,2 -8,4 -12,4 -3,1 -7,0 -9,-2 -8,-5 -12,-12 -12,-18 0,-7 1,-13 5,-19 4,-6 8,-11 13,-15 6,-4 10,-6 14,-7 4,-1 7,0 10,2 3,3 5,6 6,9 2,4 3,8 3,13 0,5 -1,9 -2,12zm-74 114c2,-2 6,-4 11,-5 5,-1 10,-3 15,-4 6,0 10,-1 15,-1 4,0 7,0 8,0 0,0 -1,4 -3,11 -2,8 -5,16 -8,26 -3,9 -7,19 -10,29 -4,10 -6,19 -8,25 -2,7 -4,14 -7,22 -2,8 -4,16 -6,23 -2,8 -4,15 -4,22 -1,7 -1,12 1,16 2,4 4,7 6,8 2,2 5,3 7,3 7,0 16,-4 27,-12 11,-8 22,-17 33,-28 12,-11 22,-22 32,-33 9,-11 16,-20 21,-27 3,-4 6,-6 9,-7 3,-1 5,-1 7,0 2,2 3,4 4,7 0,3 -1,7 -4,11 -6,11 -14,22 -25,36 -11,14 -23,27 -35,40 -13,12 -25,23 -37,32 -12,9 -22,14 -29,14 -6,0 -12,-1 -18,-3 -6,-2 -11,-5 -16,-10 -5,-4 -9,-8 -12,-14 -4,-6 -5,-11 -6,-17 -1,-9 -1,-22 0,-37 1,-16 3,-31 6,-48 3,-16 7,-31 11,-46 5,-15 10,-26 15,-33zm339 -91c-8,-5 -12,-12 -12,-18 0,-7 2,-13 5,-19 4,-6 8,-11 14,-15 5,-4 10,-6 14,-7 4,-1 7,0 9,2 3,3 5,6 7,9 1,4 2,8 2,13 0,5 0,9 -1,12 -1,4 -3,8 -6,12 -3,4 -7,7 -11,9 -3,2 -7,4 -11,4 -4,1 -8,0 -10,-2zm93 165c3,-3 6,-6 9,-7 3,0 5,0 7,1 2,2 3,4 3,8 1,3 -1,7 -3,12 -3,6 -8,13 -14,21 -6,8 -13,16 -21,25 -7,9 -15,18 -24,27 -9,8 -18,16 -26,23 -8,7 -16,13 -23,17 -7,5 -13,7 -18,7 -6,0 -12,-1 -18,-3 -6,-2 -12,-5 -16,-10 -5,-4 -9,-8 -12,-14 -4,-6 -5,-11 -6,-17 0,-6 0,-12 0,-20 0,-7 1,-15 1,-24 1,-9 2,-18 3,-28 2,-9 4,-19 6,-28 -10,1 -20,3 -30,5 -10,2 -20,5 -32,10 -6,2 -12,4 -18,6 -5,2 -10,4 -16,7 -5,2 -10,4 -13,6l-13 39c21,14 37,29 48,45 11,15 20,29 25,42 6,15 9,30 10,44 0,16 -3,31 -7,47 -5,16 -11,31 -19,46 -7,14 -16,28 -26,40 -11,13 -21,23 -33,32 -11,9 -22,16 -34,21 -11,4 -22,6 -33,5 -7,-1 -13,-3 -18,-7 -5,-4 -9,-9 -12,-16 -2,-6 -4,-13 -4,-21 0,-7 0,-15 2,-22 2,-8 5,-22 9,-42 4,-17 10,-42 18,-75 9,-32 20,-76 34,-130 -4,-4 -7,-8 -9,-12 -1,-3 -2,-7 -3,-11 -1,-3 -1,-7 0,-11 1,-5 3,-10 6,-14 3,-4 6,-8 10,-12 5,-4 10,-8 18,-12 4,-11 8,-23 12,-36 4,-13 7,-24 10,-34 3,-13 6,-25 9,-37 9,-30 13,-55 14,-74 0,-19 0,-32 -1,-38 -1,-2 -1,-5 -2,-7 0,-2 -1,-5 -1,-7 -1,-3 -2,-6 -2,-8 4,-2 7,-4 10,-6 3,-1 6,-2 8,-3 2,-1 5,-2 7,-2 8,-2 16,-3 23,-3 7,0 11,1 12,4 1,2 1,5 2,10 0,4 0,10 0,17 0,7 0,14 -1,23 -1,8 -3,17 -6,26 -3,8 -6,20 -10,34 -4,13 -9,30 -16,50 -6,21 -15,48 -25,80 8,-2 17,-5 25,-7 9,-2 17,-3 24,-5 8,-1 16,-3 24,-4 11,-1 20,-2 28,-3 3,-9 6,-17 9,-25 3,-7 6,-14 10,-19 2,-2 5,-4 10,-5 5,-1 10,-3 16,-4 5,0 10,-1 14,-1 5,0 7,0 8,0 0,0 -1,4 -3,11 -2,8 -4,16 -8,26 -3,9 -6,19 -10,29 -3,10 -6,19 -8,25 -2,7 -4,14 -7,22 -2,8 -4,16 -6,23 -2,8 -3,15 -4,22 -1,7 0,12 2,16 1,4 3,7 5,8 3,2 5,3 7,3 8,0 17,-4 27,-12 11,-8 22,-17 34,-28 11,-11 21,-22 31,-34 10,-11 17,-20 21,-27zm-238 158c-3,-8 -7,-15 -11,-22 -4,-6 -9,-13 -14,-20 -6,-7 -12,-13 -20,-19 -5,18 -9,34 -13,49 -4,15 -7,29 -9,40 -3,13 -6,25 -8,36 -3,13 -6,27 -10,40 -3,13 -6,25 -8,35 -2,11 -2,19 -2,26 0,6 3,10 7,10 10,0 21,-4 32,-12 12,-9 22,-20 31,-34 9,-13 17,-28 23,-43 6,-16 9,-30 9,-43 0,-15 -2,-29 -7,-43z"/>
   <path class="fil0" d="M3328 388c11,0 24,-4 37,-13 13,-9 26,-19 39,-31 13,-11 24,-23 35,-36 10,-12 18,-22 24,-29 3,-5 6,-8 9,-9 3,-1 5,0 6,2 2,1 2,4 2,8 -1,4 -2,8 -5,13 -3,4 -7,10 -13,18 -6,8 -12,17 -21,26 -7,10 -17,19 -27,29 -10,10 -21,19 -32,27 -11,8 -22,15 -34,20 -12,5 -23,7 -35,7 -15,0 -28,-2 -39,-8 -11,-6 -19,-14 -25,-23 -6,-9 -11,-20 -13,-31 -3,-11 -4,-22 -4,-33 0,-11 2,-25 7,-42 5,-16 13,-32 23,-47 9,-15 22,-28 37,-39 15,-11 32,-16 53,-16 11,0 21,4 29,11 8,8 12,19 12,33 0,6 -1,12 -4,19 -2,6 -5,11 -8,16 -4,5 -8,9 -13,12 -5,3 -10,4 -16,4 -4,0 -8,-2 -10,-5 -2,-4 -4,-7 -4,-12 -1,-4 -1,-9 0,-13 0,-4 1,-7 2,-9 1,-2 3,-4 5,-5 3,-1 5,-2 8,-4 2,-1 4,-2 5,-4 1,-3 2,-5 2,-7 0,-3 -1,-5 -2,-7 -2,-2 -4,-3 -7,-3 -3,0 -9,3 -18,8 -8,5 -17,13 -25,23 -9,10 -17,23 -24,39 -6,15 -10,33 -10,53 -1,12 1,21 5,29 3,7 8,13 13,18 5,4 11,7 18,9 6,1 12,2 18,2zm383 -88c-5,7 -11,16 -19,27 -8,10 -16,21 -25,31 -8,11 -16,20 -24,29 -8,9 -15,15 -20,18 -4,3 -8,4 -13,6 -4,1 -9,2 -14,3 -5,0 -9,0 -13,-1 -5,-1 -8,-3 -12,-5 -3,-2 -6,-6 -8,-11 -1,-3 -3,-9 -5,-15 -1,-6 -2,-15 -2,-24 -8,14 -18,25 -28,33 -10,7 -20,13 -29,17 -11,4 -22,6 -33,7 -5,0 -10,-2 -16,-5 -5,-4 -10,-9 -14,-17 -4,-7 -6,-16 -8,-28 -1,-11 1,-25 5,-41 5,-22 13,-42 24,-60 10,-18 22,-33 35,-46 13,-12 26,-22 38,-28 13,-7 23,-9 31,-9 10,2 18,5 24,9 5,3 8,9 10,16 1,7 -2,16 -9,27 5,-1 9,-2 12,-2 4,0 6,-1 8,-1 2,0 4,1 4,1 1,1 1,2 1,5 0,2 -1,6 -2,12 -1,6 -2,14 -4,25 -3,10 -5,24 -9,40 -1,3 -1,6 -2,9 0,2 -1,5 -2,8 0,2 -1,6 -1,9 -1,4 -2,8 -3,14 0,3 -1,6 0,10 0,4 0,7 2,10 1,4 2,6 5,8 2,2 5,3 10,3 3,0 8,-2 13,-7 6,-4 12,-10 19,-17 6,-7 13,-14 20,-23 7,-8 13,-16 19,-24 6,-8 12,-15 17,-21 4,-6 8,-10 10,-13 3,-4 6,-5 9,-6 2,-1 5,0 6,2 1,3 2,6 1,10 -1,4 -4,9 -8,15zm-157 24c2,-7 4,-16 7,-26 2,-9 4,-18 6,-27 2,-9 3,-17 4,-23 1,-5 1,-8 -1,-8 -2,1 -3,1 -6,2 -1,0 -4,1 -7,1 -2,1 -5,1 -8,2 3,-6 4,-11 5,-14 0,-4 1,-7 0,-9 0,-3 -1,-5 -2,-6 -4,-3 -11,-1 -21,8 -9,8 -21,24 -34,46 -5,9 -9,19 -12,30 -4,10 -6,20 -7,29 -1,10 -2,18 -1,25 1,7 2,11 4,13 4,4 9,6 14,6 5,0 10,-1 15,-4 5,-3 10,-6 16,-11 5,-4 9,-8 13,-13 5,-5 8,-9 11,-13 2,-4 4,-7 4,-8zm319 -53c1,-2 3,-3 5,-4 3,0 5,0 6,1 1,1 2,3 2,5 1,3 0,6 -3,10 -7,14 -16,29 -28,44 -11,16 -24,31 -36,45 -13,13 -26,25 -38,33 -12,9 -22,14 -30,14 -12,0 -22,-2 -30,-7 -8,-5 -14,-10 -18,-17 -5,-7 -8,-14 -10,-22 -1,-8 -2,-16 -1,-23 0,-5 1,-16 4,-30 2,-15 4,-32 8,-52 4,-19 8,-40 12,-62 5,-23 9,-44 14,-65 -6,1 -12,2 -18,2 -6,1 -12,1 -16,1 -12,0 -23,-1 -33,-4 -10,-2 -18,-5 -23,-7 -2,-2 -4,-4 -3,-7 0,-2 1,-5 3,-8 2,-2 4,-5 7,-7 2,-2 5,-3 7,-3 7,1 14,2 22,2 8,1 16,1 25,1 7,-1 14,-1 20,-2 6,-1 12,-2 18,-3 5,-17 10,-32 14,-44 4,-13 8,-22 12,-27 1,-2 4,-3 7,-4 4,-2 8,-3 12,-3 5,-1 9,-1 13,0 4,0 6,2 8,4 2,3 3,10 2,22 0,12 -2,27 -6,45 15,0 29,1 40,2 12,2 22,4 30,6 8,2 15,4 20,5 5,2 9,4 11,4 3,1 4,3 4,6 0,3 0,6 -1,9 -2,3 -4,5 -7,7 -3,3 -6,3 -9,3 -4,-1 -8,-2 -12,-3 -5,-1 -10,-2 -16,-2 -7,-1 -14,-2 -23,-2 -8,-1 -18,-1 -30,-1 -2,0 -4,0 -7,0 -2,0 -5,0 -8,0 -2,6 -3,11 -4,17 -1,5 -3,11 -5,17 -5,15 -10,30 -16,47 -6,15 -12,31 -20,50 -7,19 -15,39 -25,61 -2,15 -2,27 1,35 3,8 6,14 10,17 5,4 10,6 17,7 6,0 12,-2 20,-6 7,-4 15,-11 24,-18 8,-7 16,-16 24,-25 9,-9 17,-17 24,-26 7,-8 13,-16 18,-23 6,-7 10,-12 12,-15zm85 -180c-1,4 -3,8 -6,12 -3,4 -6,7 -10,9 -4,2 -8,4 -12,4 -3,1 -7,0 -9,-2 -8,-5 -12,-12 -12,-18 0,-7 1,-13 5,-19 3,-6 8,-11 13,-15 6,-4 10,-6 14,-7 4,-1 7,0 10,2 3,3 5,6 6,9 2,4 3,8 3,13 0,5 -1,9 -2,12zm-74 114c2,-2 6,-4 11,-5 5,-1 10,-3 15,-4 5,0 10,-1 15,-1 4,0 7,0 8,0 0,0 -1,4 -3,11 -2,8 -5,16 -8,26 -3,9 -7,19 -10,29 -4,10 -6,19 -8,25 -2,7 -4,14 -7,22 -2,8 -4,16 -6,23 -2,8 -4,15 -4,22 -1,7 -1,12 1,16 2,4 4,7 6,8 2,2 5,3 7,3 7,0 16,-4 27,-12 11,-8 22,-17 33,-28 11,-11 22,-22 32,-33 9,-11 16,-20 21,-27 3,-4 6,-6 9,-7 3,-1 5,-1 7,0 2,2 3,4 4,7 0,3 -1,7 -4,11 -6,11 -14,22 -25,36 -11,14 -23,27 -35,40 -13,12 -25,23 -37,32 -12,9 -22,14 -29,14 -6,0 -12,-1 -18,-3 -6,-2 -11,-5 -16,-10 -5,-4 -9,-8 -12,-14 -4,-6 -5,-11 -6,-17 -1,-9 -1,-22 0,-37 1,-16 3,-31 6,-48 3,-16 7,-31 11,-46 5,-15 10,-26 15,-33zm265 116c-3,14 -8,27 -14,38 -6,12 -13,22 -22,31 -8,9 -18,15 -28,20 -11,5 -22,7 -35,7 -14,0 -26,-3 -34,-9 -9,-6 -15,-14 -19,-23 -4,-10 -7,-20 -7,-31 -1,-11 -2,-21 -2,-31 0,-7 1,-14 3,-22 1,-9 3,-17 6,-26 3,-8 7,-17 11,-25 5,-9 10,-17 16,-24 2,-6 6,-11 10,-16 5,-4 10,-8 16,-11 5,-3 12,-6 19,-7 6,-2 13,-3 19,-3 1,0 2,0 3,1 1,0 2,1 3,1 5,0 11,2 18,5 7,3 13,8 20,15 7,6 12,14 17,24 4,10 7,22 7,36 0,2 0,6 -1,10 0,4 0,8 -1,10 8,-3 17,-7 26,-11 9,-5 17,-10 26,-15 8,-5 16,-10 23,-16 7,-5 13,-10 17,-14 4,-3 7,-5 9,-6 3,0 5,1 6,3 1,1 1,4 0,7 0,3 -2,7 -6,11 -1,2 -6,6 -13,13 -8,6 -16,13 -26,20 -10,8 -21,15 -33,22 -12,8 -23,13 -34,16zm-90 -81c-1,3 -2,7 -2,10 0,6 1,12 1,18 1,6 3,12 6,17 3,5 7,9 13,13 7,3 15,5 26,5 2,0 4,0 6,-1 2,0 3,0 5,0 1,-5 2,-9 3,-13 1,-4 1,-7 1,-10 1,-7 1,-14 0,-21 0,-7 -2,-13 -4,-19 -2,-6 -4,-11 -7,-15 -3,-3 -7,-5 -11,-5 -7,0 -13,2 -20,5 -6,4 -12,9 -17,16zm-34 94c0,7 0,13 1,19 0,7 2,12 4,17 2,5 5,9 9,12 3,3 8,4 14,4 6,0 12,-1 17,-4 6,-3 10,-7 15,-12 4,-5 8,-10 11,-17 3,-6 6,-12 9,-19 -3,0 -5,0 -7,1 -3,0 -5,0 -8,0 -14,0 -25,-4 -35,-12 -10,-8 -17,-18 -23,-31 -2,8 -4,15 -5,22 -2,7 -2,14 -2,20zm341 86c-9,0 -16,-2 -22,-5 -5,-3 -10,-7 -14,-12 -3,-5 -6,-10 -7,-17 -1,-7 0,-14 1,-21 1,-5 3,-12 6,-20 2,-9 5,-18 8,-28 2,-9 5,-19 7,-29 2,-10 4,-19 5,-27 0,-8 0,-14 -2,-20 -1,-5 -4,-7 -9,-7 -5,0 -11,2 -17,5 -6,4 -13,9 -19,16 -6,6 -12,13 -18,22 -7,8 -13,17 -19,26 -3,12 -6,22 -8,32 -2,9 -4,17 -6,24 -1,8 -3,14 -4,19 -2,6 -3,11 -4,16 -1,4 -4,7 -10,11 -5,3 -11,6 -17,8 -6,2 -11,3 -16,3 -4,0 -6,-1 -5,-5 0,-2 1,-7 3,-14 2,-8 5,-16 7,-27 3,-10 6,-21 9,-32 2,-11 5,-22 8,-33 1,-8 3,-17 6,-27 1,-8 4,-18 6,-30 3,-11 6,-24 10,-37 2,-2 5,-4 7,-5 3,-2 6,-3 9,-3 3,-1 6,-2 9,-2 3,0 5,0 8,0 3,0 5,1 8,2 3,1 5,2 7,4 -1,2 -2,6 -3,10 -2,5 -3,10 -5,15 -1,5 -3,11 -5,17 5,-6 10,-13 16,-19 6,-7 12,-13 19,-18 7,-6 14,-10 22,-13 8,-4 16,-5 24,-5 7,0 13,1 19,5 5,4 9,10 12,17 3,7 5,15 5,25 1,9 0,20 -4,31l-6 24c-1,7 -3,16 -6,26 -3,10 -6,22 -10,34 -2,8 -3,14 -3,20 1,6 4,9 11,9 6,0 15,-4 24,-12 10,-8 20,-17 30,-29 10,-11 19,-22 28,-34 9,-11 16,-20 21,-28 3,-4 6,-7 9,-9 3,-1 5,-1 7,0 1,1 2,3 2,7 0,4 -2,8 -4,14 -3,5 -7,12 -12,20 -5,8 -11,17 -18,26 -7,9 -15,19 -23,28 -9,10 -17,18 -26,26 -9,8 -18,14 -27,19 -8,5 -17,7 -24,7z"/>
  </g>
 </g>
</svg>
