<?xml version="1.0" encoding="UTF-8"?>
<!DOCTYPE svg PUBLIC "-//W3C//DTD SVG 1.1//EN" "http://www.w3.org/Graphics/SVG/1.1/DTD/svg11.dtd">
<svg xmlns="http://www.w3.org/2000/svg" xml:space="preserve" width="429px" height="269px" version="1.1" style="shape-rendering:geometricPrecision; text-rendering:geometricPrecision; image-rendering:optimizeQuality; fill-rule:evenodd; clip-rule:evenodd"
viewBox="0 0 6922 4337"
 xmlns:xlink="http://www.w3.org/1999/xlink">
 <defs>
  <style type="text/css">
   <![CDATA[
    .str0 {stroke:#373435;stroke-width:8.07538}
    .fil23 {fill:none}
    .fil47 {fill:#FEFEFE}
    .fil5 {fill:#E6E7E8}
    .fil4 {fill:#D2D3D5}
    .fil6 {fill:#BDBFC1}
    .fil3 {fill:#A9ABAE}
    .fil49 {fill:#96989A}
    .fil7 {fill:#606062}
    .fil31 {fill:#515153}
    .fil1 {fill:#4B4B4D}
    .fil2 {fill:#373435}
    .fil24 {fill:#FFFBD6}
    .fil33 {fill:#FED099}
    .fil14 {fill:#F5A433}
    .fil29 {fill:#F5A433}
    .fil17 {fill:#F6C382}
    .fil15 {fill:#E3B275}
    .fil32 {fill:#E3B275}
    .fil16 {fill:#D6A66C}
    .fil18 {fill:#BD9563}
    .fil12 {fill:black}
    .fil9 {fill:#10ACE7}
    .fil36 {fill:#FFA518}
    .fil37 {fill:#FFF0D6}
    .fil13 {fill:black;fill-rule:nonzero}
    .fil0 {fill:black;fill-opacity:0.039216}
    .fil41 {fill:#373435;fill-opacity:0.101961}
    .fil35 {fill:#FEFEFE;fill-opacity:0.121569}
    .fil19 {fill:#373435;fill-opacity:0.160784}
    .fil45 {fill:#FEFEFE;fill-opacity:0.168627}
    .fil46 {fill:#FEFEFE;fill-opacity:0.239216}
    .fil42 {fill:#FEFEFE;fill-opacity:0.301961}
    .fil21 {fill:#FEFEFE;fill-opacity:0.329412}
    .fil48 {fill:#FEFEFE;fill-opacity:0.368627}
    .fil44 {fill:#FEFEFE;fill-opacity:0.380392}
    .fil43 {fill:#FEFEFE;fill-opacity:0.501961}
    .fil27 {fill:url(#id0)}
    .fil39 {fill:url(#id1)}
    .fil26 {fill:url(#id2)}
    .fil28 {fill:url(#id3)}
    .fil40 {fill:url(#id4)}
    .fil30 {fill:url(#id5)}
    .fil34 {fill:url(#id6)}
    .fil20 {fill:url(#id7)}
    .fil11 {fill:url(#id8)}
    .fil10 {fill:url(#id9)}
    .fil25 {fill:url(#id10)}
    .fil38 {fill:url(#id11)}
    .fil8 {fill:url(#id12)}
    .fil22 {fill:url(#id13)}
   ]]>
  </style>
  <linearGradient id="id0" gradientUnits="userSpaceOnUse" x1="1301.6" y1="2897.16" x2="1208.05" y2="2892.44">
   <stop offset="0" style="stop-opacity:1; stop-color:#D2D3D5"/>
   <stop offset="1" style="stop-opacity:1; stop-color:#FEFEFE"/>
  </linearGradient>
  <linearGradient id="id1" gradientUnits="userSpaceOnUse" x1="3677.91" y1="3152.94" x2="3719.17" y2="3358.54">
   <stop offset="0" style="stop-opacity:1; stop-color:#BD9563"/>
   <stop offset="1" style="stop-opacity:1; stop-color:#D6A66C"/>
  </linearGradient>
  <linearGradient id="id2" gradientUnits="userSpaceOnUse" x1="1232.83" y1="3335.07" x2="774.298" y2="2399.68">
   <stop offset="0" style="stop-opacity:1; stop-color:#E6E7E8"/>
   <stop offset="1" style="stop-opacity:1; stop-color:#FEFEFE"/>
  </linearGradient>
  <linearGradient id="id3" gradientUnits="userSpaceOnUse" xlink:href="#id0" x1="656.34" y1="2866.31" x2="630.859" y2="2866.31">
  </linearGradient>
  <linearGradient id="id4" gradientUnits="userSpaceOnUse" xlink:href="#id1" x1="4053.21" y1="3105.91" x2="4079.3" y2="3211.73">
  </linearGradient>
  <linearGradient id="id5" gradientUnits="userSpaceOnUse" x1="2073.5" y1="2619.18" x2="2201.8" y2="2742.09">
   <stop offset="0" style="stop-opacity:1; stop-color:#BD9563"/>
   <stop offset="1" style="stop-opacity:1; stop-color:#E3B275"/>
  </linearGradient>
  <linearGradient id="id6" gradientUnits="userSpaceOnUse" xlink:href="#id5" x1="3038.07" y1="2210.26" x2="3170.31" y2="2345.9">
  </linearGradient>
  <linearGradient id="id7" gradientUnits="userSpaceOnUse" x1="2796.29" y1="756.879" x2="1808.72" y2="620.495">
   <stop offset="0" style="stop-opacity:1; stop-color:#E3B275"/>
   <stop offset="1" style="stop-opacity:1; stop-color:#F6C382"/>
  </linearGradient>
  <linearGradient id="id8" gradientUnits="userSpaceOnUse" x1="5875.75" y1="1332.65" x2="5533.84" y2="1332.65">
   <stop offset="0" style="stop-opacity:1; stop-color:#FFA518"/>
   <stop offset="1" style="stop-opacity:1; stop-color:#F7CE18"/>
  </linearGradient>
  <linearGradient id="id9" gradientUnits="userSpaceOnUse" xlink:href="#id8" x1="6095.35" y1="1362.44" x2="6369.86" y2="1362.44">
  </linearGradient>
  <linearGradient id="id10" gradientUnits="userSpaceOnUse" xlink:href="#id0" x1="1031.37" y1="3748.19" x2="874.05" y2="3245.78">
  </linearGradient>
  <linearGradient id="id11" gradientUnits="userSpaceOnUse" xlink:href="#id1" x1="3234.51" y1="3304.09" x2="3259.21" y2="3419.69">
  </linearGradient>
  <linearGradient id="id12" gradientUnits="userSpaceOnUse" x1="5665.97" y1="1803.52" x2="5665.97" y2="799.76">
   <stop offset="0" style="stop-opacity:1; stop-color:#F1F1F2"/>
   <stop offset="1" style="stop-opacity:1; stop-color:#FEFEFE"/>
  </linearGradient>
  <linearGradient id="id13" gradientUnits="userSpaceOnUse" xlink:href="#id7" x1="1898.12" y1="2735.97" x2="1018.47" y2="2538.39">
  </linearGradient>
 </defs>
 <g id="Layer_x0020_1">
  <metadata id="CorelCorpID_0Corel-Layer"/>
  <path class="fil0" d="M692 4084l1927 243c204,26 421,0 614,-74l3569 -1382c126,-49 82,-113 -37,-113l-1801 1 -239 55 -4149 1059c-186,47 -188,173 116,211z"/>
  <g id="_780902208">
   <g>
    <path class="fil1" d="M5265 2311c36,-2 70,94 76,213 5,120 -21,218 -58,219 -9,1 -125,-2 -143,-13 -83,-52 -105,-386 1,-419 10,-3 116,0 124,0z"/>
    <path class="fil2" d="M5172 2738c-6,-1 -10,-3 -13,-4 -84,-53 -105,-391 0,-423 2,-1 6,-1 12,-1l0 1c-101,36 -81,364 0,421l1 6z"/>
    <path class="fil2" d="M5203 2740c-5,-1 -10,-3 -12,-4 -84,-53 -105,-393 0,-425 2,-1 6,-1 12,-2l0 2c-102,36 -81,366 0,423l0 6z"/>
    <path class="fil2" d="M5235 2742c-6,-1 -10,-2 -12,-4 -84,-54 -106,-395 0,-428 1,0 6,0 11,-1l1 2c-102,37 -82,367 0,425l0 6z"/>
    <path class="fil2" d="M5265 2321c35,-2 68,89 73,203 5,114 -20,208 -55,209 -35,2 -68,-89 -73,-203 -5,-114 20,-208 55,-209z"/>
    <path class="fil3" d="M5275 2395c23,-1 42,56 44,127 1,72 -16,131 -38,132 -23,1 -42,-56 -44,-128 -1,-72 16,-130 38,-131z"/>
    <path class="fil4" d="M5275 2402c21,0 40,53 41,121 2,67 -14,122 -35,123 -21,1 -40,-53 -41,-120 -2,-67 14,-123 35,-124z"/>
    <path class="fil5" d="M5254 2425c14,4 26,41 26,87 1,49 -11,90 -27,90 -1,0 -2,0 -4,0 -5,-21 -9,-47 -9,-75 -1,-42 4,-79 14,-102z"/>
    <path class="fil6" d="M5242 2478c11,4 20,22 20,44 0,21 -8,40 -19,45 -2,-13 -3,-26 -3,-41 -1,-17 0,-33 2,-48z"/>
   </g>
   <g>
    <path class="fil1" d="M5136 2320c40,-2 77,103 83,233 6,131 -23,238 -63,240 -11,1 -137,-3 -156,-15 -92,-57 -115,-422 0,-457 11,-4 127,-1 136,-1z"/>
    <path class="fil2" d="M5034 2787c-6,-1 -11,-3 -14,-4 -91,-58 -115,-428 1,-463 1,-1 6,-1 13,-1l0 1c-112,40 -89,398 0,460l0 7z"/>
    <path class="fil2" d="M5069 2789c-6,-1 -11,-2 -14,-4 -92,-58 -115,-430 0,-465 2,-1 7,-1 13,-1l0 1c-111,40 -89,400 0,463l1 6z"/>
    <path class="fil2" d="M5103 2792c-6,-2 -10,-3 -13,-5 -92,-58 -115,-432 0,-467 2,-1 6,-1 13,-2l0 2c-111,40 -89,402 0,465l0 7z"/>
    <path class="fil2" d="M5136 2331c38,-2 74,98 79,222 6,125 -21,227 -59,229 -39,2 -74,-98 -80,-223 -5,-124 22,-227 60,-228z"/>
    <path class="fil3" d="M5147 2412c25,-1 46,61 48,139 2,79 -17,143 -42,144 -24,1 -46,-61 -47,-140 -2,-78 17,-142 41,-143z"/>
    <path class="fil4" d="M5147 2420c23,-1 44,58 45,132 2,73 -16,133 -39,134 -23,1 -43,-57 -45,-131 -1,-73 16,-134 39,-135z"/>
    <path class="fil5" d="M5124 2445c15,4 28,45 29,95 0,54 -13,98 -30,99 -1,0 -3,0 -4,-1 -6,-23 -10,-51 -11,-81 -1,-46 6,-87 16,-112z"/>
    <path class="fil6" d="M5111 2503c12,4 22,24 22,48 0,23 -9,43 -21,49 -2,-14 -3,-29 -4,-44 0,-19 1,-37 3,-53z"/>
   </g>
   <g>
    <path class="fil1" d="M5480 2308c39,-2 74,98 80,223 5,124 -22,227 -60,228 -10,1 -131,-2 -149,-13 -88,-55 -110,-403 0,-437 10,-3 121,-1 129,-1z"/>
    <path class="fil2" d="M5383 2754c-6,-1 -10,-3 -13,-5 -87,-55 -109,-407 1,-441 1,0 6,-1 12,-1l0 1c-106,39 -85,380 0,439l0 7z"/>
    <path class="fil2" d="M5416 2756c-5,-1 -10,-3 -13,-4 -87,-56 -109,-410 0,-444 2,0 7,-1 13,-1l0 1c-106,39 -85,382 0,442l0 6z"/>
    <path class="fil2" d="M5449 2758c-5,-1 -10,-2 -12,-4 -88,-56 -110,-412 -1,-446 2,-1 7,-1 13,-1l0 1c-106,39 -85,384 0,444l0 6z"/>
    <path class="fil2" d="M5481 2319c36,-2 70,93 75,212 5,119 -20,216 -57,218 -36,2 -70,-93 -75,-212 -6,-119 20,-217 57,-218z"/>
    <path class="fil3" d="M5491 2396c24,-1 44,58 46,133 1,75 -16,136 -40,137 -23,1 -44,-59 -45,-133 -2,-75 16,-136 39,-137z"/>
    <path class="fil4" d="M5491 2404c22,-1 42,55 43,125 2,70 -15,128 -37,129 -22,1 -41,-55 -43,-125 -1,-70 15,-128 37,-129z"/>
    <path class="fil5" d="M5469 2428c15,3 27,42 27,91 1,51 -12,93 -28,93 -1,0 -3,0 -4,0 -5,-22 -9,-49 -10,-78 -1,-43 5,-82 15,-106z"/>
    <path class="fil6" d="M5456 2482c12,5 22,24 22,46 0,23 -9,42 -21,48 -1,-14 -2,-28 -3,-43 0,-18 1,-35 2,-51z"/>
   </g>
   <g>
    <path class="fil1" d="M5346 2318c42,-2 80,107 86,243 6,136 -23,248 -65,250 -11,1 -143,-2 -163,-15 -96,-60 -120,-441 0,-477 12,-4 133,-1 142,-1z"/>
    <path class="fil2" d="M5240 2805c-7,-1 -12,-3 -14,-5 -96,-60 -120,-445 0,-482 2,-1 6,-1 13,-1l0 1c-116,42 -92,415 0,480l1 7z"/>
    <path class="fil2" d="M5276 2808c-7,-2 -11,-3 -14,-5 -96,-61 -120,-448 0,-485 2,-1 6,-1 13,-2l0 2c-116,42 -92,417 1,482l0 8z"/>
    <path class="fil2" d="M5312 2810c-6,-1 -11,-3 -14,-5 -96,-61 -120,-450 0,-487 2,-1 7,-1 13,-2l0 2c-116,42 -92,419 1,485l0 7z"/>
    <path class="fil2" d="M5346 2329c40,-2 77,102 83,232 6,130 -22,237 -62,239 -40,2 -78,-102 -83,-232 -6,-130 22,-237 62,-239z"/>
    <path class="fil3" d="M5358 2414c25,-2 48,64 49,145 2,82 -17,149 -43,150 -26,1 -48,-64 -50,-146 -1,-81 18,-148 44,-149z"/>
    <path class="fil4" d="M5358 2422c24,-1 45,61 47,137 1,77 -17,140 -41,141 -24,1 -45,-60 -47,-137 -1,-76 17,-139 41,-141z"/>
    <path class="fil5" d="M5333 2448c17,4 30,47 30,100 1,56 -13,102 -30,102 -2,0 -3,0 -5,0 -6,-24 -10,-53 -11,-85 -1,-48 6,-90 16,-117z"/>
    <path class="fil6" d="M5320 2508c13,5 23,26 23,51 0,24 -9,45 -22,51 -2,-14 -3,-30 -4,-46 0,-20 1,-39 3,-56z"/>
   </g>
  </g>
  <polygon class="fil7" points="4497,2796 5746,2526 6072,2526 6567,2333 6598,2242 3925,2467 3874,2746 "/>
  <g id="_783598032">
   <path class="fil1" d="M6465 2310c42,-1 81,109 87,246 6,137 -23,250 -66,252 -11,1 -144,-3 -164,-15 -97,-61 -121,-445 0,-481 11,-4 134,-1 143,-2z"/>
   <path class="fil2" d="M6358 2802c-7,-2 -12,-3 -14,-5 -97,-61 -121,-449 0,-486 2,-1 6,-1 13,-2l0 2c-117,42 -93,418 1,484l0 7z"/>
   <path class="fil2" d="M6394 2804c-6,-1 -11,-3 -14,-4 -96,-62 -121,-452 0,-490 2,0 7,-1 14,-1l0 2c-117,42 -94,420 0,486l0 7z"/>
   <path class="fil2" d="M6431 2807c-7,-2 -12,-3 -15,-5 -96,-62 -121,-454 0,-492 2,0 7,-1 14,-1l0 2c-117,42 -93,422 0,489l1 7z"/>
   <path class="fil2" d="M6465 2322c40,-2 78,103 84,234 5,131 -23,239 -63,241 -41,1 -78,-103 -84,-235 -5,-131 23,-238 63,-240z"/>
   <path class="fil3" d="M6477 2407c26,-1 48,65 50,147 2,82 -18,150 -44,151 -26,1 -48,-65 -50,-147 -2,-82 18,-150 44,-151z"/>
   <path class="fil4" d="M6477 2416c24,-1 45,61 47,138 2,77 -17,141 -41,142 -24,1 -45,-61 -47,-138 -2,-77 17,-141 41,-142z"/>
   <path class="fil5" d="M6452 2442c17,4 30,47 30,101 1,56 -13,102 -30,103 -2,0 -4,0 -5,-1 -6,-24 -10,-53 -11,-86 -1,-47 6,-90 16,-117z"/>
   <path class="fil6" d="M6438 2503c14,4 24,25 24,50 0,25 -10,46 -22,53 -2,-15 -4,-31 -4,-48 0,-19 0,-38 2,-55z"/>
  </g>
  <polygon class="fil7" points="5195,2948 4890,2916 4622,2558 4994,2487 "/>
  <path class="fil7" d="M5018 2803l1 182 -28 6c-6,1 -16,5 2,8l50 12c15,2 22,2 37,1l104 -11c28,-3 29,-11 1,-13l-61 -4 -1 -177 -105 -4z"/>
  <g id="_783602960">
   <path class="fil1" d="M6316 2321c47,-2 89,118 96,268 7,151 -26,274 -72,276 -12,1 -158,-3 -180,-17 -105,-65 -132,-485 1,-526 12,-4 146,-1 155,-1z"/>
   <path class="fil2" d="M6200 2858c-8,-1 -13,-3 -16,-5 -106,-67 -132,-491 0,-532 2,0 7,-1 15,-1l0 1c-128,46 -102,458 0,529l1 8z"/>
   <path class="fil2" d="M6239 2861c-7,-1 -12,-3 -15,-5 -106,-67 -133,-494 0,-535 2,-1 7,-1 15,-1l0 1c-128,46 -102,460 0,532l0 8z"/>
   <path class="fil2" d="M6279 2864c-7,-2 -12,-3 -15,-5 -106,-68 -133,-497 0,-538 2,-1 7,-1 14,-1l1 1c-128,47 -102,463 0,535l0 8z"/>
   <path class="fil2" d="M6317 2334c44,-2 85,112 91,256 6,143 -24,261 -69,263 -44,1 -85,-113 -91,-256 -6,-144 25,-261 69,-263z"/>
   <path class="fil3" d="M6330 2427c28,-2 52,70 54,160 2,90 -19,164 -47,166 -29,1 -53,-71 -55,-161 -2,-90 19,-164 48,-165z"/>
   <path class="fil4" d="M6330 2437c26,-2 49,66 51,151 2,84 -18,154 -45,155 -26,1 -49,-67 -51,-151 -2,-85 18,-154 45,-155z"/>
   <path class="fil5" d="M6303 2465c18,5 32,52 33,110 0,61 -15,112 -34,113 -2,0 -3,0 -5,-1 -7,-26 -11,-58 -12,-94 -1,-52 6,-99 18,-128z"/>
   <path class="fil6" d="M6288 2531c14,5 25,28 25,56 0,27 -10,50 -24,57 -2,-16 -4,-34 -4,-52 0,-21 1,-42 3,-61z"/>
  </g>
  <g id="_774698064">
   <path class="fil1" d="M6712 2308c45,-2 85,112 92,256 6,143 -25,261 -69,263 -12,0 -150,-3 -171,-16 -101,-63 -126,-464 0,-502 12,-4 139,-1 148,-1z"/>
   <path class="fil2" d="M6601 2820c-7,-1 -12,-3 -15,-5 -100,-63 -126,-468 0,-507 2,-1 7,-1 15,-2l0 2c-122,44 -98,436 0,505l0 7z"/>
   <path class="fil2" d="M6639 2823c-7,-2 -12,-3 -15,-5 -100,-64 -126,-471 0,-510 2,-1 7,-1 14,-2l1 2c-122,44 -98,439 0,507l0 8z"/>
   <path class="fil2" d="M6677 2825c-7,-1 -12,-3 -15,-5 -100,-64 -126,-473 0,-513 2,0 7,-1 14,-1l0 2c-121,44 -97,441 1,510l0 7z"/>
   <path class="fil2" d="M6713 2320c42,-2 81,107 87,244 6,136 -23,249 -65,251 -43,1 -82,-108 -88,-245 -5,-136 24,-248 66,-250z"/>
   <path class="fil3" d="M6725 2408c27,-1 51,68 52,154 2,85 -18,156 -45,157 -27,1 -50,-67 -52,-153 -2,-86 18,-156 45,-158z"/>
   <path class="fil4" d="M6725 2418c26,-1 48,63 49,144 2,80 -17,147 -42,148 -26,1 -48,-64 -49,-144 -2,-81 17,-147 42,-148z"/>
   <path class="fil5" d="M6700 2445c17,4 30,49 31,105 1,58 -14,107 -32,107 -2,1 -3,0 -5,0 -6,-25 -11,-56 -11,-90 -1,-50 5,-94 17,-122z"/>
   <path class="fil6" d="M6685 2508c14,5 24,27 25,53 0,26 -10,48 -24,54 -2,-15 -3,-31 -3,-49 -1,-20 0,-40 2,-58z"/>
  </g>
  <g id="_774690448">
   <path class="fil1" d="M4838 2672c69,0 125,180 125,403 0,222 -56,403 -125,403 -18,0 -232,-15 -264,-37 -152,-104 -164,-726 34,-778 19,-4 216,9 230,9z"/>
   <path class="fil2" d="M4631 3458c-10,-2 -18,-5 -22,-8 -152,-106 -164,-735 34,-787 3,0 11,-1 22,-1l0 3c-192,59 -180,669 -34,782l0 11z"/>
   <path class="fil2" d="M4690 3465c-10,-3 -18,-6 -23,-9 -151,-106 -164,-738 35,-790 3,-1 11,-1 22,-1l0 2c-192,60 -181,673 -34,786l0 12z"/>
   <path class="fil2" d="M4749 3472c-11,-3 -19,-6 -23,-9 -152,-107 -164,-743 35,-795 3,-1 11,-1 22,-1l0 3c-192,60 -181,676 -34,790l0 12z"/>
   <path class="fil2" d="M4838 2690c66,0 119,172 119,385 0,212 -53,384 -119,384 -65,0 -118,-172 -118,-384 0,-213 53,-385 118,-385z"/>
   <path class="fil3" d="M4851 2829c42,0 74,108 71,241 -3,133 -39,241 -81,241 -42,0 -74,-108 -71,-241 3,-133 39,-241 81,-241z"/>
   <path class="fil4" d="M4851 2843c39,0 69,102 66,227 -2,125 -37,226 -76,226 -39,0 -69,-101 -66,-226 3,-125 37,-227 76,-227z"/>
   <path class="fil5" d="M4809 2884c26,8 45,78 42,164 -3,91 -29,165 -57,165 -3,0 -5,-1 -8,-2 -8,-39 -12,-87 -11,-139 2,-77 15,-146 34,-188z"/>
   <path class="fil6" d="M4782 2981c22,8 36,42 35,83 -2,40 -19,73 -40,83 -2,-24 -3,-50 -2,-76 1,-32 3,-63 7,-90z"/>
  </g>
  <g id="_774693200">
   <path class="fil1" d="M6558 2319c48,-2 93,123 100,280 6,156 -27,285 -75,287 -13,1 -165,-3 -188,-17 -110,-69 -138,-507 0,-549 13,-4 153,-1 163,-1z"/>
   <path class="fil2" d="M6436 2879c-7,-2 -13,-3 -16,-5 -110,-70 -138,-513 0,-555 2,-1 8,-1 15,-2l1 2c-134,48 -107,477 0,552l0 8z"/>
   <path class="fil2" d="M6478 2882c-8,-2 -13,-4 -17,-6 -110,-69 -138,-515 0,-557 3,-1 8,-1 16,-2l0 2c-133,48 -107,480 0,555l1 8z"/>
   <path class="fil2" d="M6519 2885c-7,-2 -13,-4 -16,-6 -110,-70 -138,-518 0,-561 2,0 8,-1 15,-1l0 2c-133,48 -106,482 1,557l0 9z"/>
   <path class="fil2" d="M6558 2332c46,-2 89,117 96,267 6,149 -26,272 -72,274 -46,2 -89,-117 -95,-267 -7,-149 25,-272 71,-274z"/>
   <path class="fil3" d="M6572 2429c29,-1 55,74 57,167 2,94 -20,171 -50,173 -29,1 -55,-74 -57,-168 -2,-94 20,-171 50,-172z"/>
   <path class="fil4" d="M6572 2439c28,-1 52,69 54,158 1,88 -19,160 -47,161 -28,2 -52,-69 -54,-157 -2,-88 19,-161 47,-162z"/>
   <path class="fil5" d="M6544 2469c18,5 33,54 34,114 1,65 -15,117 -35,118 -2,0 -4,0 -5,-1 -7,-27 -12,-61 -13,-97 -1,-55 6,-104 19,-134z"/>
   <path class="fil6" d="M6528 2538c15,5 27,29 27,58 0,28 -11,52 -26,59 -2,-17 -3,-35 -4,-54 0,-22 1,-44 3,-63z"/>
  </g>
  <g id="_774688304">
   <path class="fil1" d="M4462 2712c74,0 135,197 135,439 0,243 -61,439 -135,439 -20,0 -254,-16 -289,-40 -165,-113 -178,-791 38,-847 20,-5 235,9 251,9z"/>
   <path class="fil2" d="M4236 3569c-11,-3 -20,-6 -25,-9 -165,-115 -178,-800 38,-857 3,-1 12,-1 24,-1l0 3c-209,65 -197,729 -37,851l0 13z"/>
   <path class="fil2" d="M4300 3576c-11,-3 -20,-6 -25,-9 -165,-116 -178,-804 38,-861 3,-1 12,-1 24,-1l0 2c-209,66 -197,734 -37,857l0 12z"/>
   <path class="fil2" d="M4364 3584c-11,-4 -20,-7 -25,-10 -165,-116 -178,-809 38,-866 3,0 12,-1 24,-1l0 3c-209,66 -197,737 -37,861l0 13z"/>
   <path class="fil2" d="M4462 2733c71,0 129,187 129,418 0,231 -58,419 -129,419 -71,0 -129,-188 -129,-419 0,-231 58,-418 129,-418z"/>
   <path class="fil3" d="M4476 2883c45,0 80,118 77,263 -3,145 -43,262 -89,262 -45,0 -80,-117 -76,-262 3,-145 42,-263 88,-263z"/>
   <path class="fil4" d="M4476 2899c42,0 75,111 72,247 -3,136 -40,247 -83,247 -43,0 -75,-111 -72,-247 3,-136 40,-247 83,-247z"/>
   <path class="fil5" d="M4430 2943c28,9 48,86 45,179 -3,99 -31,180 -62,180 -3,0 -5,-1 -8,-2 -9,-42 -14,-95 -12,-151 1,-85 16,-160 37,-206z"/>
   <path class="fil6" d="M4401 3049c23,9 39,46 37,91 -1,43 -20,80 -43,90 -2,-26 -3,-54 -2,-83 0,-35 3,-68 8,-98z"/>
  </g>
  <polygon class="fil8" points="4416,161 4416,2442 6916,2098 6892,742 "/>
  <g id="_977061104">
   <path class="fil9" d="M5744 1437c5,1 10,2 14,3 1,34 1,67 1,101 -5,0 -10,0 -15,0 0,14 0,29 0,43 25,0 50,-1 75,-1 0,-13 0,-25 0,-38 -2,-8 -9,0 -11,-8 0,-27 -7,-94 19,-95 18,-2 18,20 18,39 1,18 0,38 0,56 -2,6 0,2 -4,4 -1,1 -3,1 -5,2 0,13 0,27 0,40 22,-1 45,-2 66,-2 1,-13 1,-25 2,-38 -3,-1 -7,-3 -10,-4 0,-30 -7,-93 18,-95 17,1 17,22 17,38 0,18 1,39 0,57 -5,2 -4,2 -10,2 1,14 1,28 2,41 22,0 44,-1 66,-2 0,-13 0,-26 0,-39 -4,0 -8,0 -11,0 -2,-35 6,-101 -10,-124 -8,-14 -23,-21 -42,-18 -20,2 -27,23 -32,29 -7,-12 -7,-16 -15,-25 -17,-12 -39,-11 -55,2 -9,8 -9,16 -16,24 0,-10 0,-20 0,-30 -20,-1 -41,-2 -62,-3 0,14 0,28 0,41z"/>
   <path class="fil9" d="M6417 1454c27,-11 28,79 11,89 -25,12 -27,-48 -23,-70 2,-12 4,-16 12,-19zm16 -23c-11,-19 -35,-20 -48,-7 -13,13 -19,48 -18,79 0,31 7,62 23,72 9,7 22,7 32,2 13,-7 14,-21 18,-28 0,10 1,19 1,28 14,-1 27,-2 40,-2 0,-12 0,-23 0,-34 -3,0 -6,0 -8,0 -1,-29 -1,-58 -1,-87 0,-29 0,-58 0,-87 -15,0 -30,-1 -45,-2 0,12 0,24 0,35 3,1 7,1 11,1 -1,13 -1,26 -1,39 0,0 0,0 0,0 0,0 -1,-2 -1,-2 -1,-2 -2,-5 -3,-7z"/>
   <path class="fil9" d="M5228 1348c-1,31 -1,63 -2,94 0,32 -1,63 -1,95 -7,0 -14,0 -21,0 0,17 0,34 0,52 41,-1 81,-3 121,-4 -1,-16 -2,-32 -2,-48 -11,0 -21,-1 -32,-2 0,-21 0,-42 0,-62 9,0 17,0 25,0 0,10 0,20 0,30 13,0 26,0 40,0 0,-34 0,-69 0,-104 -13,0 -27,-1 -40,-1 0,9 0,18 0,27 -8,0 -16,0 -25,-1 0,-24 1,-49 1,-73 25,1 50,2 75,3 0,9 0,18 0,27 16,1 32,2 47,2 0,-25 0,-50 1,-76 -68,-4 -138,-8 -210,-12 0,18 0,35 0,52 7,0 15,1 23,1z"/>
   <path class="fil9" d="M6229 1452c4,0 7,0 11,0 0,30 0,60 0,90 -3,0 -7,0 -11,0 1,12 1,25 2,38 19,-1 37,-1 56,-1 0,-12 0,-23 -1,-35 -2,-2 -5,-3 -8,-4 0,-18 0,-36 0,-53 0,-16 3,-32 15,-32 14,-1 14,16 14,34 -1,18 1,34 -1,51 -2,2 -5,0 -6,5 0,12 0,23 0,34 18,0 37,0 55,0 0,-13 0,-25 0,-37 -4,0 -7,0 -11,0 -1,-35 5,-92 -8,-115 -7,-11 -22,-17 -37,-12 -17,6 -16,17 -24,31 0,-10 0,-19 0,-29 -15,0 -31,-1 -46,-2 0,13 0,25 0,37z"/>
   <path class="fil9" d="M5514 1495c-2,55 -37,55 -49,43 -11,-13 -4,-30 6,-37 10,-8 29,-8 43,-6zm-45 -51c4,-15 4,-33 27,-30 16,5 18,23 18,42 -29,-1 -62,-3 -83,14 -43,30 -34,111 23,117 44,4 52,-24 62,-33 1,9 1,19 2,28 21,0 42,0 62,0 0,-15 0,-30 0,-45 -4,0 -9,0 -14,0 -2,-32 2,-66 0,-93 -3,-28 -12,-50 -40,-61 -49,-22 -120,2 -112,60 19,0 37,1 55,1z"/>
   <path class="fil9" d="M6167 1504c-2,15 -3,24 -10,33 -19,25 -43,-12 -21,-28 6,-7 21,-7 31,-5zm-72 -42c62,0 29,3 44,-19 3,-6 26,-21 26,28 -20,1 -42,-3 -57,12 -30,23 -25,95 17,98 31,3 38,-22 43,-28 0,8 1,16 1,24 15,-1 30,-1 45,-2 0,-12 0,-24 0,-36 -4,0 -8,0 -11,0 -2,-27 1,-55 -1,-79 -2,-23 -8,-42 -28,-51 -16,-8 -39,-7 -54,2 -12,5 -30,27 -25,51z"/>
   <path class="fil9" d="M5617 1434c0,35 0,71 0,106 -5,0 -9,0 -13,0 0,15 -1,30 -1,45 29,0 58,0 86,-1 0,-14 0,-29 0,-44 -6,0 -11,0 -17,0 -7,-90 19,-83 50,-82 0,-22 0,-45 0,-67 -14,-7 -29,-1 -37,7 -11,14 -11,27 -16,35 0,-13 0,-26 0,-40 -22,-1 -44,-1 -66,-2 0,14 0,28 0,42 5,1 10,1 14,1z"/>
   <path class="fil9" d="M6017 1415c0,42 0,84 0,126 -4,0 -7,0 -11,0 0,14 0,27 0,41 22,-1 45,-2 67,-3 0,-12 0,-25 0,-38 -8,0 -11,0 -11,-3 0,-27 0,-54 -1,-81 0,-27 0,-54 0,-80 -18,-1 -37,-2 -56,-3 0,13 0,26 1,38 3,1 7,2 11,3z"/>
   <path class="fil10" d="M6064 1345c63,3 125,7 184,10 57,4 112,7 165,10 0,5 0,10 0,15 -55,-3 -112,-6 -171,-9 -61,-3 -124,-6 -190,-10 4,-5 8,-11 12,-16z"/>
   <path class="fil11" d="M5438 1309c99,5 194,11 285,16 86,5 170,10 249,14 -2,6 -3,12 -5,18 -79,-5 -161,-9 -247,-13 -90,-5 -184,-10 -282,-15 0,-7 0,-14 0,-20z"/>
   <path id="path4347" class="fil12" d="M6439 1310c14,2 27,3 41,4 0,-11 0,-22 0,-33 -3,0 -6,0 -9,-1 0,-22 -1,-44 -1,-66 0,-22 0,-45 0,-67 -15,-2 -31,-4 -46,-6 0,11 0,22 0,33 4,1 8,1 13,2 0,11 0,21 0,32 -8,-9 -16,-16 -26,-17 -27,-3 -40,22 -40,57 0,31 15,62 40,64 11,2 20,-4 28,-15 0,5 0,9 0,13zm-16 -37c-9,-1 -16,-11 -16,-23 0,-12 7,-22 16,-21 8,1 16,11 16,24 0,12 -7,20 -16,20z"/>
   <g>
    <path id="path4349" class="fil12" d="M5417 1075c0,-21 0,-41 0,-62 -17,-2 -35,-4 -53,-7 0,6 0,12 0,17 -17,-19 -34,-26 -57,-29 -56,-7 -87,25 -87,62 0,50 36,68 72,78 35,11 70,14 70,34 0,15 -17,17 -31,16 -10,-1 -19,-4 -27,-9 -8,-5 -14,-13 -19,-23 -19,-1 -38,-3 -58,-5 0,24 0,48 0,73 19,1 38,2 56,4 0,-6 1,-12 1,-19 15,20 38,27 58,28 47,4 82,-19 82,-68 0,-50 -34,-68 -68,-79 -34,-11 -69,-14 -69,-34 0,-12 15,-15 27,-13 12,1 21,4 30,10 8,5 14,12 20,20l53 6zm0 0c0,0 0,0 0,0 0,0 0,0 0,0z"/>
   </g>
   <g>
    <path id="path4351" class="fil12" d="M5504 1094c-22,-2 -45,-5 -67,-7 0,14 0,28 0,43 5,0 10,1 15,1 0,21 0,42 0,62 -5,0 -10,-1 -15,-1 0,14 0,29 0,43 29,2 58,5 87,7 0,-14 0,-28 0,-43 -5,0 -10,0 -15,-1 0,-15 0,-30 0,-45 0,-14 8,-17 17,-16 10,1 16,6 16,19 0,29 0,58 0,87 23,2 46,4 68,5 0,-14 0,-27 0,-41 -4,-1 -9,-1 -14,-1 0,-15 0,-30 0,-45 0,-15 7,-17 16,-16 10,1 15,6 15,18 0,29 0,58 1,87 22,1 44,3 66,5 0,-14 0,-28 0,-41 -5,0 -10,-1 -14,-1 0,-20 0,-39 0,-59 0,-31 -16,-47 -40,-49 -17,-2 -33,3 -46,14 -10,-15 -22,-23 -39,-24 -19,-2 -38,4 -51,18l0 -19zm0 0c0,0 0,0 0,0 0,0 0,0 0,0z"/>
   </g>
   <g>
    <path id="path4353" class="fil12" d="M5785 1222c-4,-1 -9,-1 -14,-1 0,-33 0,-65 0,-97 -21,-3 -42,-5 -64,-7 0,13 0,27 0,40 5,0 10,1 14,1 0,20 0,39 0,58 -4,0 -9,0 -14,-1 0,14 0,27 0,41 27,2 53,3 78,5l0 -39zm0 0c0,0 0,0 0,0 0,0 0,0 0,0z"/>
   </g>
   <g>
    <path id="path4355" class="fil12" d="M6192 1256c-3,0 -7,0 -11,0 0,-29 0,-58 0,-87 -17,-2 -34,-4 -51,-6 0,13 0,25 0,37 4,1 8,1 11,1 0,17 0,34 0,51 -3,0 -7,0 -11,-1 0,12 0,24 0,36 21,2 42,3 63,5l-1 -36zm0 0c0,0 0,0 0,0 0,0 0,0 0,0z"/>
   </g>
   <g>
    <path id="path4357" class="fil12" d="M5880 1111c4,0 8,1 12,1 0,40 0,79 0,119 -4,0 -8,-1 -13,-1 0,13 0,26 0,38 24,2 48,4 72,6 0,-13 0,-25 0,-38 -5,-1 -9,-1 -13,-1 0,-14 0,-27 0,-40 0,-16 10,-18 16,-17 7,0 15,4 15,20 0,26 0,51 0,77 19,2 39,3 58,5 0,-13 0,-25 -1,-38 -4,0 -8,0 -12,-1 0,-19 0,-39 0,-59 0,-18 -5,-36 -35,-40 -11,-1 -22,-1 -41,6 0,-23 0,-46 0,-69 -20,-2 -39,-5 -59,-7l1 39zm0 0c0,0 0,0 0,0 0,0 0,0 0,0z"/>
   </g>
   <g>
    <path id="path4359" class="fil12" d="M6271 1260c-4,7 -10,10 -16,10 -12,-1 -18,-10 -18,-25 23,2 46,4 69,6 0,-47 -15,-74 -53,-78 -30,-3 -57,16 -56,59 0,32 15,65 60,69 18,1 38,-7 46,-30 -11,-3 -22,-7 -32,-11zm-35 -35c0,-13 6,-23 19,-22 11,1 15,12 15,25l-34 -3zm0 0c0,0 0,0 0,0 0,0 0,0 0,0z"/>
   </g>
   <g>
    <path id="path4361" class="fil12" d="M6310 1161c3,0 7,1 11,1 0,35 0,70 0,105 -3,0 -7,0 -11,0 0,11 0,22 0,34 19,1 39,3 57,4 0,-11 0,-22 0,-34 -3,0 -7,0 -10,0 0,-23 0,-46 0,-69 0,-23 0,-46 -1,-69 -15,-2 -31,-4 -47,-6l1 34zm0 0c0,0 0,0 0,0 0,0 0,0 0,0z"/>
   </g>
   <path id="path4363" class="fil12" d="M5744 1105c-15,-2 -27,-17 -27,-35 0,-17 12,-30 27,-28 15,2 28,17 28,35 0,17 -12,29 -28,28z"/>
   <g>
    <path id="path4365" class="fil12" d="M5850 1073c0,20 0,40 0,59 5,1 11,2 16,2 0,13 0,26 0,39 -5,-1 -11,-1 -16,-2 0,14 0,27 0,41 0,11 3,12 9,13 3,0 5,0 7,1 0,14 0,28 0,41 -11,0 -23,-1 -35,-2 -19,-2 -29,-13 -29,-35 0,-21 0,-42 0,-64 -5,0 -9,0 -14,-1 0,-13 0,-26 0,-39 5,0 9,1 14,1 0,-12 0,-23 0,-35 15,2 27,-6 30,-21l18 2zm0 0c0,0 0,0 0,0 0,0 0,0 0,0z"/>
   </g>
   <path id="path4367" class="fil13" d="M6107 1142c-2,7 -3,14 -5,19 6,1 12,2 17,2 0,13 1,25 1,37 -8,0 -16,-1 -24,-2 -10,41 -17,72 -23,96 -6,23 -12,36 -20,50 -12,20 -32,25 -47,26 -10,0 -23,-4 -28,-10 3,-9 6,-18 9,-26 3,1 6,1 9,2 8,0 17,-3 23,-13 8,-11 11,-24 17,-48 9,-36 19,-81 19,-81 -9,-1 -17,-2 -26,-3 0,-12 0,-25 0,-38 12,2 23,3 34,4 3,-9 7,-21 12,-33 0,0 5,-12 13,-24 8,-11 17,-21 32,-23 11,-2 20,0 28,5 11,5 18,16 22,25 4,10 6,23 4,33 -4,10 -11,15 -18,14 -6,-2 -12,-7 -14,-14 -3,-7 -2,-14 -1,-16 1,-2 3,-5 3,-5 0,0 0,-3 -3,-6 -2,-1 -9,-4 -18,3 -9,7 -13,17 -16,26z"/>
   <path id="path4977" class="fil12" d="M6489 1152c-5,-1 -9,4 -9,10 0,7 4,12 9,13 6,1 10,-4 10,-10 0,-7 -4,-12 -10,-13zm0 2c5,0 8,5 8,10 0,6 -3,10 -8,10 -4,-1 -8,-6 -8,-11 0,-6 4,-10 8,-9zm-3 15c0,1 1,1 2,1 0,-2 0,-4 0,-6 0,0 0,0 0,0 0,1 1,1 1,0 2,5 3,6 5,7 0,0 0,0 0,-1 0,0 0,0 1,0 -2,-1 -2,-2 -5,-6 2,0 3,-2 3,-3 0,-1 -1,-2 -1,-3 -1,-1 -2,-1 -3,-1 -1,0 -1,0 -2,0 0,0 -1,0 -1,0 0,4 0,8 0,12zm2 -11c0,0 0,0 1,0 1,1 2,1 2,3 0,2 -1,2 -3,2 0,0 0,0 0,0 0,-2 0,-3 0,-5z"/>
  </g>
  <path class="fil4" d="M5280 2940l1022 -252c52,-4 92,-50 99,-112l54 -231c8,-37 32,-62 51,-65 19,-3 -214,1 -215,-14 -1,-16 -1369,249 -1369,249 34,3 54,16 61,36l162 355c29,47 75,57 135,34z"/>
  <polygon class="fil4" points="4430,2426 6919,2086 6922,2207 5037,2540 4964,2509 4418,2586 "/>
  <path class="fil4" d="M3621 172l684 0c53,-4 103,-2 150,6l2441 569 -1 -43c-1,-29 -16,-38 -50,-44 0,0 -1987,-472 -2352,-575 -12,-3 -43,-25 -90,-29 -64,-5 -146,9 -146,5 0,-5 -1495,23 -1495,23l-42 19 901 69z"/>
  <path class="fil4" d="M4319 59l85 0c15,0 26,12 26,27l0 2493c0,15 -141,20 -141,-5l4 -2488c0,-15 12,-27 26,-27z"/>
  <g>
   <path class="fil6" d="M4542 2436c13,-2 26,-3 39,-5 7,-1 12,2 16,6 5,5 8,12 9,20 0,0 0,0 0,0 0,8 -2,16 -6,22 -3,6 -9,10 -15,11 -13,2 -26,4 -39,6 -6,1 -13,-2 -17,-7 -4,-4 -7,-12 -7,-20 0,0 0,0 0,0 -1,-8 1,-16 4,-22 4,-6 10,-10 16,-11z"/>
   <path class="fil6" d="M4705 2414c12,-2 25,-4 37,-6 6,0 12,2 16,7 4,4 7,11 7,19 0,0 0,0 0,0 1,8 -2,15 -5,21 -3,6 -8,10 -14,11 -13,1 -25,3 -37,5 -7,1 -12,-1 -16,-6 -4,-5 -7,-12 -8,-19 0,0 0,0 0,0 0,-8 2,-16 5,-22 3,-6 9,-10 15,-10z"/>
   <path class="fil6" d="M4859 2392c12,-1 24,-3 35,-5 6,-1 11,2 14,6 4,5 7,12 7,19 0,0 0,0 0,0 1,8 -2,15 -5,21 -3,5 -7,9 -13,10 -12,1 -24,3 -35,5 -6,1 -12,-1 -15,-6 -4,-5 -7,-11 -7,-19 0,0 0,0 0,0 -1,-8 1,-15 5,-21 3,-5 8,-9 14,-10z"/>
   <path class="fil6" d="M5004 2372c11,-2 22,-3 33,-5 5,0 10,2 13,7 3,4 6,10 6,18 0,0 0,0 0,0 1,7 -1,14 -4,20 -3,5 -8,9 -13,9 -11,2 -21,4 -33,5 -5,1 -10,-1 -14,-6 -3,-4 -6,-11 -6,-18 0,0 0,0 0,0 -1,-8 1,-15 4,-20 3,-5 8,-9 14,-10z"/>
   <path class="fil6" d="M5140 2353c11,-1 21,-3 31,-4 5,-1 10,1 13,6 3,4 6,10 6,17 0,0 0,0 0,0 0,8 -2,14 -5,20 -2,5 -7,8 -12,9 -10,2 -20,3 -31,5 -5,1 -10,-2 -13,-6 -3,-4 -5,-11 -6,-18 0,0 0,0 0,0 0,-7 2,-14 5,-19 3,-6 7,-9 12,-10z"/>
   <path class="fil6" d="M5269 2335c10,-1 20,-3 30,-4 5,-1 9,2 12,6 3,4 5,10 5,17 0,0 0,0 0,0 1,7 -1,14 -4,19 -3,5 -7,8 -12,9 -10,1 -19,3 -29,4 -5,1 -10,-1 -13,-5 -3,-5 -5,-11 -5,-18 0,0 0,0 0,0 0,-7 1,-14 4,-19 3,-5 7,-8 12,-9z"/>
   <path class="fil6" d="M5391 2318c10,-1 19,-3 29,-4 4,0 8,2 11,6 2,4 5,10 5,17 0,0 0,0 0,0 0,7 -2,13 -4,18 -3,5 -7,8 -11,9 -9,1 -19,3 -28,4 -5,1 -9,-1 -12,-6 -3,-4 -5,-10 -5,-17 0,0 0,0 0,0 0,-6 1,-13 4,-18 2,-5 7,-8 11,-9z"/>
   <path class="fil6" d="M5507 2302c9,-1 18,-3 27,-4 4,0 8,2 10,6 3,4 5,10 5,16 0,0 0,0 0,0 0,7 -2,13 -4,18 -3,5 -6,8 -10,9 -9,1 -18,2 -26,4 -5,0 -9,-2 -12,-6 -3,-4 -4,-10 -5,-16 0,0 0,0 0,0 0,-7 2,-14 4,-18 3,-5 7,-8 11,-9z"/>
   <path class="fil6" d="M5617 2287c8,-2 17,-3 25,-4 4,0 7,2 10,6 2,4 5,9 5,16 0,0 0,0 0,0 0,6 -2,12 -4,17 -3,5 -6,8 -10,8 -8,2 -17,3 -25,4 -4,1 -8,-1 -11,-5 -2,-4 -4,-10 -4,-17 0,0 0,0 0,0 0,-6 1,-12 4,-17 2,-5 6,-8 10,-8z"/>
   <path class="fil6" d="M5721 2272c8,-1 16,-2 24,-3 4,-1 7,1 10,5 2,4 4,10 4,16 0,0 0,0 0,0 0,6 -1,12 -4,17 -2,4 -5,7 -9,8 -8,1 -16,2 -24,3 -4,1 -8,-1 -10,-5 -2,-4 -4,-9 -4,-16 0,0 0,0 0,0 0,-6 1,-12 3,-17 3,-4 6,-7 10,-8z"/>
   <path class="fil6" d="M5820 2258c8,-1 16,-2 23,-3 4,0 7,2 9,5 3,4 5,10 4,16 0,0 0,0 0,0 1,6 -1,12 -3,16 -2,4 -5,8 -9,8 -7,1 -15,2 -23,4 -4,0 -7,-2 -9,-6 -3,-3 -4,-9 -4,-15 0,0 0,0 0,0 -1,-6 1,-12 3,-17 2,-4 5,-7 9,-8z"/>
   <path class="fil6" d="M5915 2245c7,-1 15,-2 22,-3 3,0 6,2 9,5 2,4 3,9 3,15 0,0 0,0 0,0 0,6 -1,12 -3,16 -2,5 -5,8 -9,8 -7,1 -14,2 -21,3 -4,1 -7,-1 -9,-5 -2,-4 -4,-9 -4,-15 0,0 0,0 0,0 0,-6 1,-12 3,-16 2,-4 5,-7 9,-8z"/>
   <path class="fil6" d="M6005 2232c7,0 14,-1 21,-2 3,-1 6,1 9,5 2,3 3,9 3,14 0,0 0,0 0,0 0,6 -1,12 -3,16 -2,4 -5,7 -8,8 -7,1 -14,2 -21,3 -4,0 -7,-2 -9,-5 -2,-4 -3,-9 -3,-15 0,0 0,0 0,0 0,-6 1,-12 3,-16 2,-4 5,-7 8,-8z"/>
   <path class="fil6" d="M6092 2220c6,0 13,-1 20,-2 3,-1 6,1 8,5 2,3 3,8 3,14 0,0 0,0 0,0 0,6 -1,11 -3,15 -2,5 -5,7 -8,8 -7,1 -14,2 -20,3 -3,0 -6,-2 -8,-5 -2,-4 -4,-9 -4,-15 0,0 0,0 0,0 0,-6 2,-11 4,-15 1,-4 4,-7 8,-8z"/>
   <path class="fil6" d="M6174 2209c7,-1 13,-2 19,-3 3,0 6,2 8,5 2,4 3,9 3,14 0,0 0,0 0,0 0,6 -2,11 -3,15 -2,4 -5,7 -8,8 -6,0 -13,1 -19,2 -3,1 -6,-1 -8,-4 -2,-4 -3,-9 -3,-15 0,0 0,0 0,0 0,-5 1,-11 3,-15 2,-4 5,-7 8,-7z"/>
   <path class="fil6" d="M6253 2198c6,-1 12,-2 18,-3 3,0 6,2 7,5 2,4 3,9 3,14 0,0 0,0 0,0 0,6 -1,11 -3,15 -2,4 -4,6 -7,7 -6,1 -12,2 -18,3 -3,0 -6,-2 -8,-5 -1,-4 -2,-9 -3,-14 0,0 0,0 0,0 1,-6 2,-11 4,-15 1,-4 4,-7 7,-7z"/>
   <path class="fil6" d="M6328 2188c6,-1 12,-2 18,-3 3,0 5,2 7,5 1,3 3,8 3,13 0,0 0,0 0,0 0,6 -2,11 -3,15 -2,4 -5,6 -7,7 -6,0 -12,1 -18,2 -2,1 -5,-1 -7,-5 -1,-3 -3,-8 -2,-13 0,0 0,0 0,0 -1,-6 1,-11 2,-15 2,-3 5,-6 7,-6z"/>
   <path class="fil6" d="M6401 2177c5,0 11,-1 16,-2 3,0 5,2 7,5 2,3 3,8 3,13 0,0 0,0 0,0 0,5 -1,10 -3,14 -2,4 -4,6 -7,7 -5,1 -11,1 -16,2 -3,1 -6,-1 -7,-4 -2,-4 -3,-8 -3,-14 0,0 0,0 0,0 0,-5 1,-10 3,-14 1,-4 4,-6 7,-7z"/>
   <path class="fil6" d="M6470 2168c6,-1 11,-2 16,-3 3,0 5,2 7,5 1,3 2,8 2,13 0,0 0,0 0,0 0,5 -1,10 -3,14 -1,4 -3,6 -6,6 -5,1 -11,2 -16,3 -3,0 -5,-1 -7,-5 -1,-3 -2,-8 -2,-13 0,0 0,0 0,0 0,-5 1,-10 3,-14 1,-3 4,-6 6,-6z"/>
   <path class="fil6" d="M6537 2158c5,0 10,-1 15,-2 3,0 5,2 6,5 2,3 3,8 3,13 0,0 0,0 0,0 0,5 -1,10 -3,13 -1,4 -4,6 -6,6 -5,1 -10,2 -15,3 -3,0 -5,-2 -7,-5 -1,-3 -2,-7 -2,-13 0,0 0,0 0,0 0,-5 1,-10 3,-13 1,-4 4,-6 6,-7z"/>
   <path class="fil6" d="M6601 2150c5,-1 10,-2 15,-3 2,0 4,2 6,5 1,3 2,7 2,12 0,0 0,0 0,0 0,5 -1,10 -3,14 -1,3 -3,6 -6,6 -5,1 -9,1 -14,2 -3,1 -5,-1 -6,-4 -2,-3 -3,-8 -3,-13 0,0 0,0 0,0 0,-5 2,-10 3,-13 1,-4 4,-6 6,-6z"/>
   <path class="fil6" d="M6663 2141c4,-1 9,-1 14,-2 2,0 4,1 6,4 1,3 2,8 2,13 0,0 0,0 0,0 0,5 -1,9 -3,13 -1,3 -3,5 -5,6 -5,0 -10,1 -15,2 -2,0 -4,-1 -6,-5 -1,-3 -2,-7 -2,-12 0,0 0,0 0,0 0,-5 1,-9 3,-13 1,-3 3,-6 6,-6z"/>
   <path class="fil6" d="M6722 2133c5,-1 9,-2 14,-2 2,-1 4,1 5,4 1,3 2,7 2,12 0,0 0,0 0,0 0,5 -1,10 -2,13 -2,3 -3,6 -6,6 -4,1 -9,1 -13,2 -3,0 -5,-1 -6,-4 -1,-3 -2,-8 -2,-13 0,0 0,0 0,0 0,-4 1,-9 2,-12 2,-4 4,-6 6,-6z"/>
   <path class="fil6" d="M6779 2125c5,-1 9,-2 14,-2 2,0 4,1 5,4 1,3 2,7 2,12 0,0 0,0 0,0 0,5 -2,9 -3,13 -1,3 -3,5 -5,5 -5,1 -9,2 -13,2 -3,1 -5,-1 -6,-4 -1,-3 -2,-7 -2,-12 0,0 0,0 0,0 1,-5 1,-9 3,-12 1,-4 3,-6 5,-6z"/>
   <path class="fil6" d="M6835 2117c4,-1 8,-1 12,-2 2,0 4,2 5,5 1,2 2,7 2,11 0,0 0,0 0,0 0,5 -1,9 -2,12 -2,4 -4,6 -5,6 -5,1 -9,1 -13,2 -2,0 -4,-1 -5,-4 -2,-3 -2,-7 -2,-12 0,0 0,0 0,0 0,-5 1,-9 2,-12 1,-3 3,-6 6,-6z"/>
   <path class="fil6" d="M6888 2110c4,-1 8,-2 12,-2 2,0 4,1 5,4 1,3 2,7 2,12 0,0 0,0 0,0 0,4 -1,8 -2,12 -2,3 -4,5 -6,5 -4,1 -8,1 -12,2 -2,0 -4,-1 -5,-4 -1,-3 -2,-7 -2,-12 0,0 0,0 0,0 0,-4 1,-9 2,-12 2,-3 4,-5 6,-5z"/>
  </g>
  <g>
   <path class="fil14" d="M4535 2432c13,-1 27,-3 40,-5 6,-1 12,2 16,6 4,5 7,12 8,20 0,0 0,0 0,0 1,8 -2,16 -6,22 -3,6 -8,10 -15,11 -13,2 -26,4 -39,6 -6,1 -12,-2 -16,-7 -5,-4 -7,-12 -8,-20 0,0 0,0 0,0 -1,-8 1,-16 5,-22 3,-6 9,-10 15,-11z"/>
   <path class="fil14" d="M4698 2410c13,-2 25,-4 38,-6 6,0 11,2 15,7 4,4 7,11 8,19 0,0 0,0 0,0 0,8 -2,15 -6,21 -3,6 -8,10 -14,11 -12,1 -25,3 -37,5 -6,1 -12,-1 -16,-6 -4,-5 -7,-12 -7,-19 0,0 0,0 0,0 -1,-8 1,-16 5,-22 3,-5 8,-10 14,-10z"/>
   <path class="fil14" d="M4852 2388c12,-1 24,-3 36,-5 5,-1 10,2 14,7 3,4 6,11 7,18 0,0 0,0 0,0 0,8 -2,15 -5,21 -3,5 -8,9 -14,10 -11,1 -23,3 -35,5 -6,1 -11,-1 -15,-6 -4,-5 -6,-11 -7,-19 0,0 0,0 0,0 0,-8 2,-15 5,-20 3,-6 8,-10 14,-11z"/>
   <path class="fil14" d="M4997 2368c11,-2 22,-3 33,-5 5,0 10,2 13,7 4,4 6,10 7,18 0,0 0,0 0,0 0,7 -2,14 -5,20 -3,5 -7,9 -12,9 -11,2 -22,4 -33,5 -6,1 -11,-1 -14,-6 -4,-4 -6,-11 -7,-18 0,0 0,0 0,0 0,-8 2,-15 5,-20 3,-5 8,-9 13,-10z"/>
   <path class="fil14" d="M5133 2349c11,-1 21,-3 31,-4 5,-1 10,1 13,6 3,4 6,10 6,17 0,0 0,0 0,0 1,8 -2,14 -4,20 -3,5 -7,8 -12,9 -11,2 -21,3 -31,5 -5,1 -10,-2 -13,-6 -4,-4 -6,-11 -6,-18 0,0 0,0 0,0 -1,-7 1,-14 4,-19 3,-6 7,-9 12,-10z"/>
   <path class="fil14" d="M5262 2331c10,-1 20,-3 30,-4 5,-1 9,2 12,6 3,4 5,10 6,17 0,0 0,0 0,0 0,7 -2,14 -5,19 -2,5 -6,8 -11,9 -10,1 -20,3 -30,4 -4,1 -9,-1 -12,-5 -3,-4 -5,-11 -6,-18 0,0 0,0 0,0 0,-7 2,-14 4,-19 3,-5 8,-8 12,-9z"/>
   <path class="fil14" d="M5385 2314c9,-1 18,-3 28,-4 4,0 8,2 11,6 3,4 5,10 5,17 0,0 0,0 0,0 0,7 -2,13 -4,18 -2,5 -6,8 -11,9 -9,1 -18,3 -28,4 -4,1 -9,-1 -12,-5 -3,-5 -5,-11 -5,-18 0,0 0,0 0,0 0,-6 2,-13 4,-18 3,-5 7,-8 12,-9z"/>
   <path class="fil14" d="M5501 2298c8,-1 17,-3 26,-4 4,0 8,2 10,6 3,4 5,10 5,16 0,0 0,0 0,0 0,7 -1,13 -4,18 -2,5 -6,8 -10,9 -9,1 -17,2 -26,4 -5,0 -9,-2 -12,-6 -2,-4 -4,-10 -4,-16 0,0 0,0 0,0 -1,-7 1,-14 3,-18 3,-5 7,-8 12,-9z"/>
   <path class="fil14" d="M5610 2283c9,-2 17,-3 25,-4 4,0 8,2 10,6 3,4 5,9 5,16 0,0 0,0 0,0 0,6 -2,12 -4,17 -2,5 -6,8 -10,8 -8,2 -16,3 -25,4 -4,1 -8,-1 -10,-5 -3,-4 -4,-10 -5,-16 0,0 0,0 0,0 0,-7 2,-13 4,-18 2,-5 6,-8 10,-8z"/>
   <path class="fil14" d="M5714 2268c8,-1 16,-2 24,-3 4,-1 8,1 10,5 3,4 5,10 5,16 0,0 0,0 0,0 0,6 -2,12 -4,17 -2,4 -6,7 -10,8 -8,1 -16,2 -24,4 -4,0 -7,-2 -10,-6 -2,-4 -4,-9 -4,-16 0,0 0,0 0,0 0,-6 1,-12 4,-17 2,-4 5,-7 9,-8z"/>
   <path class="fil14" d="M5814 2254c7,-1 15,-2 23,-3 3,0 7,2 9,5 2,4 4,10 4,16 0,0 0,0 0,0 0,6 -2,12 -4,16 -2,5 -5,8 -8,8 -8,1 -16,2 -23,4 -4,0 -8,-2 -10,-6 -2,-3 -4,-9 -4,-15 0,0 0,0 0,0 0,-6 1,-12 3,-17 2,-4 6,-7 10,-8z"/>
   <path class="fil14" d="M5908 2241c8,-1 15,-2 22,-3 4,0 7,2 9,5 2,4 4,9 4,15 0,0 0,0 0,0 0,6 -2,12 -4,16 -2,5 -5,8 -8,8 -7,1 -15,2 -22,3 -3,1 -7,-1 -9,-5 -2,-4 -4,-9 -4,-15 0,0 0,0 0,0 0,-6 1,-12 4,-16 2,-4 5,-7 8,-8z"/>
   <path class="fil14" d="M5999 2229c7,-1 14,-2 20,-3 4,-1 7,1 9,5 2,3 3,9 4,14 0,0 0,0 0,0 -1,6 -2,12 -4,16 -2,4 -5,7 -8,8 -7,1 -14,2 -21,3 -3,0 -6,-2 -8,-5 -2,-4 -4,-9 -4,-15 0,0 0,0 0,0 0,-6 2,-12 3,-16 2,-4 5,-7 9,-7z"/>
   <path class="fil14" d="M6085 2217c7,-1 13,-2 20,-3 3,-1 6,1 8,5 2,3 3,8 3,14 0,0 0,0 0,0 0,6 -1,11 -3,15 -2,5 -5,7 -8,8 -7,1 -13,2 -20,3 -3,0 -6,-2 -8,-5 -2,-4 -3,-9 -3,-15 0,0 0,0 0,0 0,-5 1,-11 3,-15 2,-4 5,-7 8,-7z"/>
   <path class="fil14" d="M6167 2205c7,-1 13,-2 20,-3 3,0 5,2 7,5 2,4 3,9 3,14 0,0 0,0 0,0 0,6 -1,11 -3,15 -2,4 -4,7 -7,8 -7,0 -13,1 -20,2 -3,1 -5,-1 -7,-4 -2,-4 -4,-9 -4,-15 0,0 0,0 0,0 1,-5 2,-11 3,-15 2,-4 5,-7 8,-7z"/>
   <path class="fil14" d="M6247 2194c5,-1 11,-2 17,-2 3,-1 6,1 8,4 1,4 3,9 3,14 0,0 0,0 0,0 0,6 -2,11 -4,15 -1,4 -4,6 -7,7 -6,1 -12,2 -17,3 -4,0 -6,-2 -8,-5 -2,-4 -3,-9 -3,-14 0,0 0,0 0,0 0,-6 1,-11 3,-15 2,-4 4,-7 8,-7z"/>
   <path class="fil14" d="M6322 2184c6,-1 11,-2 17,-3 3,0 5,2 7,5 2,3 3,8 3,13 0,0 0,0 0,0 0,6 -1,11 -3,15 -2,4 -4,6 -7,7 -6,0 -11,1 -17,2 -3,1 -6,-1 -7,-5 -2,-3 -3,-8 -3,-13 0,0 0,0 0,0 0,-6 1,-11 3,-15 1,-3 4,-6 7,-6z"/>
   <path class="fil14" d="M6394 2173c6,0 11,-1 17,-2 3,0 5,2 6,5 2,3 3,8 3,13 0,0 0,0 0,0 0,5 -1,10 -3,14 -1,4 -3,6 -6,7 -6,1 -11,1 -17,2 -3,1 -5,-1 -7,-4 -2,-4 -3,-8 -3,-14 0,0 0,0 0,0 1,-5 2,-10 3,-14 2,-4 4,-6 7,-7z"/>
   <path class="fil14" d="M6464 2164c5,-1 10,-2 16,-2 2,-1 5,1 6,4 1,3 3,8 3,13 0,0 0,0 0,0 0,5 -2,10 -3,14 -2,4 -4,6 -6,6 -6,1 -11,2 -17,3 -2,0 -5,-1 -6,-5 -2,-3 -3,-8 -3,-13 0,0 0,0 0,0 0,-5 1,-10 3,-14 2,-3 4,-6 7,-6z"/>
   <path class="fil14" d="M6530 2154c6,0 11,-1 16,-2 2,0 4,2 6,5 1,3 2,8 2,13 0,0 0,0 0,0 0,5 -1,10 -2,13 -2,4 -4,6 -7,7 -5,0 -10,1 -15,2 -2,0 -5,-2 -6,-5 -2,-3 -3,-7 -3,-13 0,0 0,0 0,0 0,-5 1,-10 3,-13 2,-4 4,-6 6,-7z"/>
   <path class="fil14" d="M6594 2146c5,-1 10,-2 15,-3 3,0 5,2 6,5 1,3 2,8 2,13 0,0 0,0 0,0 0,5 -1,9 -2,13 -2,3 -4,6 -6,6 -5,1 -10,1 -15,2 -2,1 -5,-1 -6,-4 -1,-3 -2,-8 -2,-13 0,0 0,0 0,0 0,-5 1,-10 2,-13 2,-4 4,-6 6,-6z"/>
   <path class="fil14" d="M6656 2137c5,-1 10,-1 14,-2 3,0 5,1 6,4 1,3 2,8 2,13 0,0 0,0 0,0 0,5 -1,9 -2,13 -2,3 -4,5 -6,6 -5,0 -10,1 -15,2 -2,0 -4,-1 -5,-4 -2,-4 -3,-8 -3,-13 0,0 0,0 0,0 1,-5 2,-9 3,-13 1,-3 4,-6 6,-6z"/>
   <path class="fil14" d="M6715 2129c5,-1 10,-2 14,-2 2,-1 4,1 5,4 2,3 3,7 3,12 0,0 0,0 0,0 0,5 -1,10 -3,13 -1,3 -3,6 -5,6 -5,1 -9,1 -14,2 -2,0 -4,-1 -6,-4 -1,-3 -2,-8 -2,-13 0,0 0,0 0,0 0,-4 1,-9 3,-12 1,-4 3,-6 5,-6z"/>
   <path class="fil14" d="M6773 2121c4,-1 9,-2 13,-2 2,0 4,1 5,4 1,3 2,7 2,12 0,0 0,0 0,0 0,5 -1,9 -3,13 -1,3 -3,5 -5,5 -4,1 -9,2 -13,2 -2,1 -4,-1 -5,-4 -2,-3 -2,-7 -2,-12 0,0 0,0 0,0 0,-5 1,-9 2,-12 2,-4 4,-6 6,-6z"/>
   <path class="fil14" d="M6828 2113c4,-1 8,-1 13,-2 2,0 3,2 4,5 2,2 2,7 2,11 0,0 0,0 0,0 0,5 -1,9 -2,12 -1,4 -3,6 -5,6 -4,1 -9,1 -13,2 -2,0 -4,-1 -5,-4 -1,-3 -2,-7 -2,-12 0,0 0,0 0,0 0,-5 1,-9 3,-12 1,-3 3,-6 5,-6z"/>
   <path class="fil14" d="M6881 2106c4,-1 8,-2 12,-2 2,0 4,1 5,4 2,3 2,7 2,12 0,0 0,0 0,0 0,4 -1,8 -2,12 -1,3 -3,5 -5,5 -5,1 -9,1 -13,2 -2,0 -4,-1 -5,-4 -1,-3 -1,-7 -1,-12 0,0 0,0 0,0 0,-4 1,-9 2,-12 1,-3 3,-5 5,-5z"/>
  </g>
  <polygon class="fil4" points="6896,747 6888,745 6912,2087 6919,2086 "/>
  <polygon class="fil5" points="4293,172 2409,172 2562,2329 4322,2589 "/>
  <path class="fil4" d="M4337 2591l-360 -34 16 -147 327 35c0,0 30,147 17,146z"/>
  <path class="fil2" d="M507 3972l338 21c0,0 2,-837 3,-860 2,-22 -356,13 -356,13l15 826z"/>
  <path class="fil1" d="M4377 2763l-2266 -157 0 -125 2283 158 0 107c0,11 -5,17 -17,17z"/>
  <path class="fil7" d="M4352 2769l-2266 -157 0 -125 2283 158 0 107c0,11 -6,17 -17,17z"/>
  <path class="fil15" d="M2736 2925c-148,-5 -294,96 -255,148 8,65 134,239 154,587 1,22 248,55 246,78 177,-10 302,-23 434,-67l849 -287c37,-13 75,-27 101,-40 24,-12 38,-23 34,-60 -17,-162 4,-310 42,-468 16,-67 -20,-57 -94,-66l-331 -24 -1180 199z"/>
  <path class="fil16" d="M2879 1453l48 -254c0,0 246,-49 240,-79 -7,-29 364,49 364,49 0,0 -54,1545 -49,1573 6,28 -46,85 -46,85l-593 86 36 -1460z"/>
  <polygon class="fil17" points="2843,2913 2672,2331 2648,2042 2827,2063 2875,2165 3001,2705 2990,2868 "/>
  <polygon class="fil17" points="856,1953 1037,1333 1072,1237 1132,1227 921,1962 "/>
  <path class="fil18" d="M2811 2919c92,-15 191,310 212,656 0,11 119,38 120,60 2,28 -114,52 -114,66 1,20 -58,25 -131,22 -118,-6 -271,-35 -273,-63 -18,-348 -136,-522 -144,-587 -37,-52 100,-153 239,-148l91 -6z"/>
  <path class="fil7" d="M4243 3311l-1080 325c-103,18 -194,19 -280,18 -86,-1 -239,-46 -246,-46 -1,0 -3,0 -7,0 2,18 3,37 5,57 0,15 125,45 195,64 52,15 42,16 103,12 153,-9 262,-25 382,-66l849 -287c58,-19 120,-28 136,-68 3,-5 4,-30 0,-40 -3,-9 -39,25 -57,31z"/>
  <path class="fil19" d="M2736 3124c32,60 304,561 305,577 0,30 -6,28 -153,37 -69,6 -262,-55 -263,-78 -6,-115 -23,-210 -43,-289l154 -247z"/>
  <g>
   <path class="fil1" d="M2652 3067c103,-2 190,243 193,546 4,304 -76,552 -180,554 -27,0 -351,-14 -399,-43 -230,-137 -259,-986 39,-1062 28,-7 325,5 347,5z"/>
   <path class="fil2" d="M2353 4146c-16,-3 -28,-7 -34,-11 -231,-139 -260,-998 38,-1074 5,-1 17,-2 34,-2l0 3c-288,87 -261,919 -38,1068l0 16z"/>
   <path class="fil2" d="M2442 4154c-16,-4 -28,-8 -35,-12 -230,-140 -259,-1003 39,-1079 4,-2 16,-2 33,-2l0 3c-288,87 -261,924 -38,1074l1 16z"/>
   <path class="fil2" d="M2530 4161c-16,-3 -28,-7 -34,-11 -230,-141 -260,-1009 38,-1086 5,-1 17,-2 34,-2l0 4c-288,87 -261,928 -38,1079l0 16z"/>
   <path class="fil2" d="M2652 3092c98,-1 181,232 185,521 3,290 -74,526 -172,528 -99,2 -181,-231 -185,-521 -3,-289 73,-526 172,-528z"/>
   <path class="fil3" d="M2674 3281c63,-1 112,145 110,327 -2,181 -55,330 -118,331 -63,1 -112,-145 -110,-327 2,-182 55,-330 118,-331z"/>
   <path class="fil4" d="M2674 3301c59,-1 105,136 103,307 -2,171 -51,310 -111,311 -59,1 -105,-136 -103,-307 2,-171 51,-310 111,-311z"/>
   <path class="fil5" d="M2611 3357c40,10 69,106 66,223 -3,124 -40,226 -84,227 -3,0 -7,-1 -11,-2 -13,-53 -20,-119 -19,-190 1,-106 20,-200 48,-258z"/>
   <path class="fil6" d="M2573 3490c32,11 55,57 53,113 -2,54 -27,101 -59,114 -3,-32 -5,-67 -4,-104 0,-44 4,-85 10,-123z"/>
  </g>
  <g>
   <path class="fil1" d="M873 2914c103,-2 190,242 194,546 4,304 -77,551 -180,553 -28,1 -351,-13 -400,-42 -230,-138 -259,-987 39,-1062 28,-7 326,5 347,5z"/>
   <path class="fil2" d="M575 3993c-16,-3 -28,-7 -35,-11 -230,-140 -259,-998 39,-1074 4,-1 16,-2 33,-2l0 3c-288,87 -261,919 -38,1068l1 16z"/>
   <path class="fil2" d="M663 4000c-16,-3 -28,-7 -34,-11 -230,-140 -260,-1003 38,-1080 5,-1 17,-1 34,-2l0 4c-288,87 -261,924 -38,1073l0 16z"/>
   <path class="fil2" d="M752 4008c-16,-4 -28,-7 -35,-12 -230,-141 -259,-1008 39,-1085 4,-1 16,-2 33,-2l0 3c-288,88 -261,929 -37,1080l0 16z"/>
   <path class="fil2" d="M873 2939c99,-2 182,232 185,521 4,290 -73,526 -172,528 -98,2 -181,-232 -184,-521 -4,-290 73,-526 171,-528z"/>
   <path class="fil3" d="M895 3128c63,-2 113,145 111,327 -2,181 -55,330 -118,331 -64,1 -113,-145 -111,-327 2,-182 55,-330 118,-331z"/>
   <path class="fil4" d="M895 3148c59,-2 106,136 104,307 -2,170 -52,310 -111,311 -59,1 -106,-137 -104,-307 2,-171 52,-310 111,-311z"/>
   <path class="fil5" d="M833 3204c39,10 68,106 65,223 -3,124 -40,226 -83,227 -4,0 -8,-1 -11,-2 -13,-53 -21,-119 -20,-190 1,-106 20,-200 49,-258z"/>
   <path class="fil6" d="M794 3337c32,11 55,57 53,113 -1,54 -26,100 -58,114 -4,-33 -5,-68 -5,-104 1,-44 4,-85 10,-123z"/>
  </g>
  <polygon class="fil18 str0" points="2502,3157 2493,3192 1562,3541 51,3365 34,3165 69,3128 "/>
  <path class="fil7" d="M3968 317c20,-6 62,-8 66,26 54,431 78,866 80,1302 1,202 -3,405 -10,608 -8,204 6,407 -119,427 0,0 45,-647 31,-648 -14,0 -28,-887 -28,-887l-70 -755 50 -73z"/>
  <path class="fil15" d="M3331 1338c15,477 21,954 -21,1435 -2,32 -11,61 -34,63 -120,13 -210,41 -330,54 6,-112 -46,-109 -50,-139 -18,-112 -14,-223 -43,-265 -16,-24 -19,-56 -19,-108 1,-59 3,-138 -1,-197 -5,-98 -18,-148 -84,-191 58,-190 120,-487 178,-677 27,-86 73,-96 145,-93 55,3 107,6 159,12 77,10 98,24 100,106z"/>
  <path class="fil4" d="M2333 121c-5,-17 -11,-33 -19,-52 -10,-10 3,-68 43,-69 35,-1 49,19 62,48 12,28 23,70 17,72 -23,7 -45,5 -68,12 -12,-5 -22,-7 -35,-11z"/>
  <path class="fil15" d="M2719 2232c-12,0 18,-17 65,-28 25,-6 63,-7 84,-9 11,-1 12,-9 15,-25 6,-26 8,-93 -11,-107 -12,-9 -22,-19 -30,-31 -42,-63 -22,-160 -15,-244 33,-158 66,-317 100,-475 20,-69 51,-100 90,-113 27,-8 121,-9 215,-5 66,3 127,3 176,4 45,1 52,-7 52,37 4,524 -1,1039 -50,1556l517 -87 64 -189 23 -1045 -26 -326 -563 -113c-171,38 -342,77 -513,115 -43,59 -85,117 -127,175 -22,116 -44,231 -66,346 -6,92 -12,184 -18,275l-84 97 64 68 38 124z"/>
  <path class="fil17" d="M2719 2232c-12,0 18,-17 65,-28 25,-6 63,-7 84,-9 11,-1 12,-9 15,-25 6,-26 8,-93 -11,-107 -12,-9 -22,-19 -30,-31 -42,-63 -22,-160 -15,-244 33,-158 66,-317 100,-475 33,-112 80,-115 183,-121 142,-9 367,-10 357,-25l-555 -20c-43,59 -85,117 -127,175 -22,116 -44,231 -66,346 -6,92 -12,184 -18,275l-84 97 64 68 38 124z"/>
  <path class="fil16" d="M3549 108c127,21 192,26 282,43 70,13 128,85 137,166l91 879 -431 -25 -79 -1063z"/>
  <path class="fil15" d="M3465 89c90,20 179,43 269,59 69,13 128,85 136,166l92 879 -431 -24 -66 -1080z"/>
  <path class="fil20" d="M1065 1257c26,-80 74,-173 138,-303 217,-437 412,-775 952,-828 16,-1 1186,-55 1186,-55 151,5 196,46 200,108l-10 990 -519 -11c-53,-7 -82,28 -128,110 -32,52 -59,40 -115,26l-137 -8 -718 -15 -738 -19 -76 24c-17,5 -43,6 -35,-19z"/>
  <path class="fil4" d="M733 1487l70 -7c33,-4 33,15 33,40l4 400c1,10 -17,26 -28,26l-87 -2c-38,-1 -37,-21 -37,-32l9 -370c1,-42 16,-53 36,-55z"/>
  <path class="fil21" d="M733 1487l70 -7c33,-4 33,15 33,40l4 400c1,10 -17,26 -28,26l-115 -383 0 -21c1,-42 16,-53 36,-55z"/>
  <path class="fil1" d="M687 1913c47,3 96,3 131,1 10,-1 17,-3 23,-6l0 13c1,11 -17,27 -28,26l-37 0 0 0c11,24 14,27 31,47 -4,7 -8,15 -12,22 -9,-1 -18,-3 -27,-5 -24,-30 -24,-27 -32,-65l0 0 -12 0c-37,-1 -37,-21 -37,-33z"/>
  <path class="fil1" d="M298 2552c-22,-3 -34,-20 -40,-42 -3,-9 -5,-19 -6,-28 -5,-35 -4,-41 -17,-75 -24,-60 -45,-128 -69,-188 -16,-41 -16,-38 -50,-60 32,2 65,-2 97,0 -20,25 -33,26 -22,53 20,48 39,96 59,144 17,43 32,95 52,124 -1,24 -2,48 -4,72z"/>
  <path class="fil22" d="M2793 2920c14,0 26,-2 36,-3 17,-2 17,-26 14,-54 -2,-23 1,-47 -25,-79 -22,-27 17,-197 -69,-273 -40,-35 -35,-86 -35,-134 0,-68 20,-221 -18,-286 -24,-40 -76,-53 -117,-57 -497,-41 -1567,-62 -1708,-81 -4,0 -13,-2 -22,3 -26,16 -106,66 -199,138 -145,113 -316,282 -316,330 0,25 -27,171 -38,177 -39,23 -126,100 -179,178 -31,47 -45,95 -45,130 0,38 -2,236 29,242 468,184 1077,195 1565,146 251,-25 556,-71 732,-125 50,-15 92,7 104,-15 46,-78 110,-239 291,-237z"/>
  <path class="fil17" d="M1693 2539c0,0 -98,-53 -95,-60 4,-7 980,-435 1036,-434 25,8 48,23 62,46 10,18 16,41 19,68 -269,80 -981,373 -1022,380z"/>
  <path class="fil7" d="M2371 3832c4,-22 -1,-45 -7,-44 -154,39 -20,-280 43,-452 2,-7 12,-30 16,-40 14,-44 -62,-15 -73,-11 -205,80 -468,21 -697,56 -18,5 -17,42 -23,47 -21,19 -31,-12 -50,71 -13,58 -26,120 -35,165 -28,133 -71,156 -196,156 -311,-20 -584,-38 -895,-59 -102,-10 -446,-274 -406,-61 3,15 -7,28 -4,43 9,40 21,62 81,71 509,59 995,104 1500,124 225,8 427,20 714,-27 27,-4 27,-7 32,-39z"/>
  <path class="fil15" d="M2371 3762c27,-176 45,-339 115,-513 2,-7 12,-28 16,-37 14,-39 -62,-13 -73,-10 -205,73 -547,86 -776,118 -18,4 -17,37 -23,42 -21,17 -31,-11 -50,63 -13,53 -26,109 -35,149 -28,121 -71,141 -196,141 -311,-18 -584,-34 -895,-53 -118,-11 -144,-117 -157,-194l-23 -149c-1,-10 23,-30 19,-38 -5,-12 -20,-18 -36,-23 -34,-12 -67,-24 -101,-36 -20,-7 -77,-31 -97,-37 -11,-8 -10,-17 -2,-25 7,-8 31,-27 41,-32 -18,-4 -34,-4 -38,-7 -2,-2 -30,18 -44,31 -4,3 -11,19 -12,35 -12,165 4,297 40,459 9,36 21,55 81,64 509,53 995,94 1500,111 225,8 427,18 714,-24 27,-4 28,-6 32,-35z"/>
  <path class="fil17" d="M2383 3495l73 -229c7,-25 17,-44 16,-53 -2,-17 -26,-6 -73,12 -264,72 -474,83 -746,116 314,-23 444,-10 716,-88 65,-18 55,-1 39,64l-59 286 34 -108z"/>
  <path class="fil17" d="M1644 3431c197,-5 376,-12 551,-43 66,-12 128,-33 184,-66 -91,22 -176,39 -268,54 -132,21 -276,37 -467,55z"/>
  <path class="fil17" d="M1608 3709c78,2 164,10 241,1 69,-7 96,-11 111,-46 9,-21 14,-53 22,-106 -27,43 -53,86 -79,129l-295 22z"/>
  <path class="fil23 str0" d="M1825 3533l86 -10c12,-2 28,-2 38,7 8,7 13,19 15,30 2,19 -21,66 -30,83 -13,23 -31,40 -63,42l-83 7c-21,1 -37,-21 -35,-51 0,-17 4,-34 10,-50 12,-31 31,-54 62,-58z"/>
  <path class="fil16" d="M1825 3523l97 -11c14,-2 31,-2 43,8 9,8 15,21 17,33 3,21 -24,74 -34,92 -15,26 -35,45 -72,48l-93 7c-24,1 -42,-23 -41,-56 1,-20 5,-38 12,-57 14,-33 36,-59 71,-64z"/>
  <path class="fil24" d="M1826 3537l83 -8c12,-1 27,-1 37,9 8,7 13,18 14,29 3,18 -20,64 -29,79 -12,22 -29,38 -61,40l-80 4c-20,1 -36,-22 -34,-50 1,-17 4,-33 10,-49 12,-29 30,-51 60,-54z"/>
  <polygon class="fil16" points="1922,3512 1671,3523 1755,3533 1785,3539 "/>
  <path class="fil23" d="M167 3543l-8 -69c-2,-14 -10,-25 -29,-34l-46 -20c-39,-10 -38,18 -36,46l6 48c4,21 17,33 28,38l51 17c22,4 37,-10 34,-26z"/>
  <path class="fil17" d="M48 3414c-12,38 -7,77 1,108 5,19 5,35 18,46 19,15 45,17 67,25 41,15 119,12 139,0 -83,-9 -65,4 -120,-17l-105 -162z"/>
  <path class="fil16" d="M189 3545l-10 -81c-3,-16 -13,-29 -35,-39l-56 -21c-46,-11 -46,22 -43,55l8 56c4,24 20,38 33,44l61 17c26,4 45,-13 42,-31z"/>
  <path class="fil24" d="M170 3541l-8 -69c-2,-14 -11,-25 -29,-34l-46 -20c-39,-11 -39,18 -37,46l7 48c4,21 17,34 28,39l51 16c21,4 37,-10 34,-26z"/>
  <path class="fil16" d="M88 3404l135 37c0,0 -79,-3 -81,0 -3,4 -54,-37 -54,-37z"/>
  <path class="fil17" d="M1667 3025c-2,2 -66,143 -79,228 -3,21 -2,38 1,51 26,-2 51,-5 77,-7 38,-4 78,-8 119,-13 10,-31 21,-68 47,-101 13,-17 5,-42 65,-69 63,-29 126,-80 196,-91 11,-2 482,-334 483,-335 2,-2 -327,105 -525,172 -66,23 -121,52 -119,13 0,-9 2,-18 6,-26 20,-33 66,-60 93,-80 23,-17 219,-104 398,-159 170,-52 334,-75 325,-84 -22,-24 -51,-25 -52,-94 -5,7 -265,89 -472,168 -225,85 -445,207 -563,427z"/>
  <path class="fil17" d="M219 3340c-65,-25 -232,-72 -217,-125 5,34 140,88 217,125z"/>
  <path class="fil17" d="M287 3429l0 -1 -19 -82c-12,-55 16,-61 -37,-81 -67,-23 -134,-45 -201,-67 -17,-15 -37,-28 -4,-55 14,-12 32,-24 34,-22 4,3 20,3 38,7 -10,5 -34,24 -41,32 -8,8 -9,17 2,25 20,6 77,30 97,37 34,12 67,24 101,36 16,5 31,11 36,23 4,8 -20,28 -19,38l9 91c1,6 3,12 4,19z"/>
  <path class="fil25" d="M411 3326c-89,-16 -114,-58 -118,-45 -2,8 -20,28 -19,38l23 149c13,77 39,183 157,194l895 53c125,0 168,-20 196,-141 9,-40 22,-96 35,-149 15,-60 27,-53 41,-57 30,-17 -10,-27 -34,-15 -21,10 -21,13 -50,19 -111,25 -424,30 -676,14 -202,-13 -363,-43 -450,-60z"/>
  <path class="fil17" d="M274 3320c-1,2 -1,3 -1,5l25 150c13,80 39,191 158,202l895 56c124,-1 168,-22 196,-147 8,-42 21,-101 34,-155 16,-63 27,-55 41,-60 26,-16 -1,-15 -24,-7 -6,8 -11,22 -18,49 -13,54 -26,113 -35,155 -28,125 -71,146 -196,147 -311,-19 -584,-36 -895,-55 -118,-12 -144,-122 -157,-202l-23 -138z"/>
  <path class="fil5" d="M1492 3441c22,0 39,17 39,39 0,21 -17,38 -39,38 -21,0 -38,-17 -38,-38 0,-22 17,-39 38,-39z"/>
  <path class="fil7" d="M1492 3445c17,0 31,14 31,31 0,17 -14,30 -31,30 -17,0 -30,-13 -30,-30 0,-17 13,-31 30,-31z"/>
  <path class="fil5" d="M1193 3624l0 -78c-3,-47 29,-45 83,-45 46,1 78,0 124,1 50,1 68,9 70,43 1,25 -8,47 -24,68 -17,24 -42,45 -69,50 -42,7 -94,10 -134,10 -31,0 -50,-16 -50,-49z"/>
  <path class="fil5" d="M619 3580l-5 -84c-3,-47 -30,-41 -82,-44 -44,-3 -79,-5 -123,-8 -48,-2 -66,5 -68,38 -1,24 8,47 23,68 17,24 40,46 67,53 40,10 102,20 140,22 30,2 48,-12 48,-45z"/>
  <path class="fil5" d="M325 3362c17,0 31,17 31,39 0,21 -14,38 -31,38 -17,0 -31,-17 -31,-38 0,-22 14,-39 31,-39z"/>
  <path class="fil7" d="M327 3367c13,0 24,14 24,31 0,16 -11,30 -24,30 -13,0 -24,-14 -24,-30 0,-17 11,-31 24,-31z"/>
  <path class="fil7" d="M1205 3612l0 -70c-3,-43 26,-41 75,-41 41,1 70,0 111,1 45,0 62,8 63,39 1,22 -7,42 -21,61 -16,21 -38,40 -63,45 -37,6 -84,9 -120,9 -28,-1 -45,-14 -45,-44z"/>
  <path class="fil5" d="M664 3471l464 24c4,0 13,1 21,7 8,7 15,20 15,24l7 99c0,4 -2,19 -10,28 -7,7 -24,8 -27,8l-455 -24c-4,0 -16,-3 -23,-13 -7,-9 -8,-25 -8,-29l-7 -99c0,-4 -1,-14 3,-19 5,-6 16,-6 20,-6z"/>
  <path class="fil7" d="M619 3570l-5 -78c-3,-44 -27,-38 -75,-41 -41,-2 -73,-4 -113,-7 -45,-2 -61,4 -63,35 -1,22 8,43 21,63 15,22 37,42 62,48 36,10 94,19 129,21 27,1 44,-11 44,-41z"/>
  <path class="fil7" d="M681 3471l434 21c3,0 12,1 19,7 8,6 14,17 14,20l7 88c0,3 -2,17 -10,25 -6,6 -22,7 -25,7l-425 -21c-4,0 -15,-3 -22,-12 -6,-8 -7,-22 -7,-25l-7 -88c0,-3 -1,-13 3,-17 5,-5 15,-5 19,-5z"/>
  <path class="fil26" d="M274 3207c-14,-196 -6,-378 8,-577 4,-59 16,-233 88,-247 143,-28 399,-38 586,-31 253,9 405,32 645,72 103,17 145,45 139,204 -1,42 -34,190 -63,340 -31,161 -59,324 -80,356 -24,36 -96,57 -220,60 -257,6 -696,-9 -945,-67 -123,-29 -154,-52 -158,-110z"/>
  <path class="fil4" d="M329 3144c-15,-150 -9,-408 9,-566 6,-52 23,-84 66,-91 52,-9 104,-13 177,-14 25,0 47,43 72,45 185,13 415,27 601,32 34,1 72,-38 105,-34 46,6 86,10 136,17 91,14 121,14 112,138 -2,37 -19,170 -38,287 -12,78 -23,157 -34,211 -15,70 -18,94 -71,101 -167,23 -796,-30 -985,-51 -111,-13 -143,-30 -150,-75z"/>
  <path class="fil7" d="M343 3138c-14,-147 -8,-399 9,-554 5,-50 23,-81 65,-89 51,-9 101,-12 172,-13 25,-1 46,42 71,44 181,13 406,26 588,31 33,1 70,-37 102,-33 45,6 84,9 134,17 89,13 118,13 109,134 -2,37 -19,167 -37,281 -12,77 -23,154 -34,207 -14,68 -17,91 -69,98 -163,23 -778,-29 -963,-50 -109,-12 -141,-29 -147,-73z"/>
  <path class="fil27" d="M1151 3271c27,-251 71,-492 126,-725l0 0c28,-10 57,-33 82,-30 -62,244 -106,496 -133,758 -25,-1 -50,-2 -75,-3z"/>
  <path class="fil28" d="M625 3233c1,-245 -2,-492 -8,-738 12,11 24,22 36,23l8 1c2,236 6,477 9,718 -15,-1 -30,-2 -45,-4z"/>
  <path class="fil17" d="M1654 3245c23,-67 46,-127 74,-159 49,-60 109,-98 175,-134 66,-36 134,-64 213,-86 80,-22 174,5 171,100 -3,61 -14,122 -32,185 -25,86 -53,85 -135,95 -140,18 -290,30 -430,45 -50,5 -49,-9 -36,-46z"/>
  <g>
   <path class="fil4" d="M343 2550c420,28 938,58 1265,60 0,6 1,13 1,21 -190,5 -840,-28 -1270,-61 1,-7 2,-14 4,-20z"/>
   <path class="fil4" d="M332 2636c423,28 945,58 1273,60 -1,6 -1,13 -2,20 -192,6 -843,-28 -1272,-61 0,-6 1,-13 1,-19z"/>
   <path class="fil4" d="M327 2718c420,28 939,58 1268,60 -1,7 -2,14 -3,21 -199,5 -841,-29 -1266,-61 0,-7 0,-13 1,-20z"/>
   <path class="fil4" d="M323 2801c417,30 931,63 1260,68 -1,7 -2,14 -3,21 -208,2 -838,-35 -1258,-70 1,-6 1,-13 1,-19z"/>
   <path class="fil4" d="M321 2884c413,33 919,68 1248,75l-3 21c-216,0 -831,-40 -1245,-77 0,-6 0,-13 0,-19z"/>
   <path class="fil4" d="M321 2967c408,32 908,66 1235,74l-3 21c-222,-1 -823,-40 -1232,-76 0,-6 0,-13 0,-19z"/>
   <path class="fil4" d="M323 3050c403,32 894,67 1220,75 -1,7 -3,15 -4,21 -228,-2 -812,-40 -1215,-76 0,-7 -1,-14 -1,-20z"/>
   <path class="fil4" d="M328 3133c397,33 875,68 1198,77 -2,8 -4,16 -7,22 -235,-5 -795,-43 -1188,-79 -1,-3 -1,-6 -2,-9 0,-4 -1,-7 -1,-11z"/>
  </g>
  <path class="fil16" d="M1649 3251c23,-66 45,-125 72,-157 48,-58 106,-97 171,-132 64,-35 130,-63 207,-84 78,-22 169,5 166,98 -2,60 -13,121 -31,182 -24,85 -52,84 -131,94 -136,18 -283,30 -418,44 -49,5 -48,-8 -36,-45z"/>
  <path class="fil18" d="M1660 3245c22,-63 45,-120 71,-151 49,-57 107,-94 172,-128 64,-34 130,-61 208,-82 77,-21 169,5 166,95 -2,59 -13,117 -31,177 -25,82 -52,81 -132,91 -136,17 -283,28 -419,42 -49,5 -48,-8 -35,-44z"/>
  <path class="fil5" d="M1667 3242c22,-63 44,-118 70,-149 47,-55 104,-91 167,-125 63,-33 128,-59 203,-79 76,-21 166,5 163,93 -2,57 -13,114 -30,172 -24,80 -51,79 -129,89 -134,17 -277,28 -410,41 -47,5 -47,-7 -34,-42z"/>
  <path class="fil29" d="M2211 2919c22,16 39,38 38,73 -1,39 -17,211 -78,223 -10,2 -36,3 -24,-14 20,-28 37,-81 45,-122 8,-36 10,-60 9,-81 -5,-49 -22,-47 -37,-77 -2,-6 0,-11 8,-12 6,-1 20,-3 39,10z"/>
  <path class="fil24" d="M2113 2925c41,0 74,34 74,77 0,42 -33,77 -74,77 -41,0 -74,-35 -74,-77 0,-43 33,-77 74,-77z"/>
  <path class="fil29" d="M2135 3002c-16,0 -30,-14 -30,-31 0,-18 14,-32 30,-32 17,0 30,14 30,32 0,17 -13,31 -30,31z"/>
  <path class="fil24" d="M1846 3071c49,0 89,40 89,88 0,49 -40,88 -89,88 -49,0 -89,-39 -89,-88 0,-48 40,-88 89,-88z"/>
  <path class="fil24" d="M2074 2994c75,0 136,64 136,141 0,39 -15,74 -39,99 -16,4 -36,6 -60,9 -36,4 -72,8 -108,12 -39,-25 -64,-69 -64,-120 0,-77 60,-141 135,-141z"/>
  <path class="fil18" d="M70 3136c28,15 149,71 176,63 15,-4 13,-30 10,-76 -2,-30 -3,-55 -5,-83 -3,-49 -9,-61 -25,-106 -13,-35 -34,-85 -65,-140 -7,-14 -9,-19 -18,-24 -11,-5 -23,12 -35,31 -40,64 -75,191 -73,267 2,42 3,51 35,68z"/>
  <path class="fil5" d="M66 3126c28,15 146,70 172,62 15,-4 12,-29 10,-75 -2,-28 -3,-53 -5,-80 -3,-48 -9,-60 -25,-104 -12,-33 -33,-82 -63,-136 -7,-14 -9,-19 -17,-23 -12,-6 -23,11 -35,29 -38,63 -73,187 -70,261 1,42 2,50 33,66z"/>
  <path class="fil24" d="M134 2886c38,0 69,44 69,99 0,55 -31,99 -69,99 -39,0 -69,-44 -69,-99 0,-55 30,-99 69,-99z"/>
  <path class="fil29" d="M66 2921c1,-10 19,-76 38,-104 8,-12 15,-19 22,-13 13,9 39,62 46,83 -16,-22 -70,-25 -106,34z"/>
  <path class="fil24" d="M165 3103c4,-14 11,-32 18,-49 17,-40 37,-74 47,-29 2,11 9,66 10,97 1,34 -2,45 -16,45 -14,-1 -33,-9 -48,-20 -21,-13 -19,-18 -11,-44z"/>
  <path class="fil17" d="M2668 2902c33,-16 64,-29 129,-31 77,-3 8,-87 7,-87 -34,-2 -115,18 -150,33 -52,23 -75,54 -100,86 -54,69 -84,146 -112,202 -13,26 -16,37 -11,39 4,2 45,3 53,-8 39,-56 94,-192 184,-234z"/>
  <path class="fil17" d="M694 2294c75,-95 149,-183 224,-245 30,-25 36,-41 30,-50 -6,-11 -29,-14 -63,-30 1,36 52,20 18,58 -66,71 -185,200 -209,267z"/>
  <path class="fil17" d="M1458 2367c317,-136 534,-280 821,-318 71,-10 141,9 224,17 -82,3 -161,-9 -228,5 -264,56 -518,187 -817,296z"/>
  <path class="fil5" d="M104 2164c41,0 122,3 141,0 24,-3 37,-29 35,-50l-5 -68c-2,-33 -23,-41 -73,-37l-88 8c-39,3 -48,12 -50,41 -2,17 -4,48 -3,66 2,26 11,40 43,40z"/>
  <path class="fil30" d="M1962 2658c10,17 20,34 29,50 38,13 243,71 244,77 5,14 78,-12 78,-12 -80,-37 -151,-70 -227,-114l-3 -87c-40,29 -81,57 -121,86z"/>
  <path class="fil1" d="M1953 2603c0,-18 0,-32 0,-44 1,-37 11,-48 73,-59 17,37 29,66 46,103 0,23 -10,36 -30,45 -28,14 -70,18 -80,10 -9,-7 -9,-23 -9,-55z"/>
  <path class="fil1" d="M1962 2600c0,-17 0,-30 0,-41 1,-34 10,-45 68,-55 15,35 26,61 41,95 1,21 -9,33 -27,42 -26,12 -64,17 -74,9 -8,-7 -8,-21 -8,-50z"/>
  <path class="fil1" d="M2005 2627c51,0 70,-16 77,-43 4,-17 -5,-38 -6,-62 -1,-18 8,-86 22,-148 9,-39 17,-79 25,-107 13,-42 20,-45 43,-62 -31,0 -62,1 -93,2 22,9 20,22 13,53 -16,78 -43,162 -55,239 -42,3 -63,117 -26,128z"/>
  <path class="fil5" d="M2061 2210l137 0c35,0 61,-26 63,-62l4 -52c2,-36 -14,-61 -49,-59l-149 7c-35,2 -59,23 -60,59l-2 51c-1,35 20,57 56,56z"/>
  <path class="fil31" d="M1196 1262l1531 35c73,2 142,92 126,165l-95 423c-17,73 -68,131 -142,128l-1631 -73c-73,-4 -95,-28 -74,-100l134 -467c21,-72 77,-113 151,-111zm-139 618c-29,-33 3,-450 85,-481 62,-23 57,-80 103,-79 19,1 63,-13 79,26 8,20 -23,415 -39,483 -10,43 -37,55 -71,57 -46,2 -104,-17 -143,-1 -9,4 -10,-2 -14,-5z"/>
  <path class="fil2" d="M2514 1892c-94,-12 -170,-52 -170,-89 0,-38 76,-58 170,-46 93,12 169,52 169,89 0,37 -76,58 -169,46zm1 -6c-76,-10 -137,-42 -137,-72 0,-30 61,-47 137,-37 76,10 137,42 137,72 0,30 -61,47 -137,37z"/>
  <path class="fil1" d="M2721 1909c-53,-81 -79,-66 -179,-64 -133,-4 -297,-5 -474,-23 -110,-11 -209,-43 -268,-40 -71,3 -159,34 -278,68 -210,39 -408,-8 -613,25l-26 47 42 32 961 51 668 26 158 -22c16,-27 46,-52 9,-100z"/>
  <path class="fil1" d="M1074 1883c-2,-167 -19,-356 76,-487 18,-25 48,-32 75,-55 9,-11 18,-22 26,-34l-79 -50 -61 21c-15,16 -29,32 -43,48 -30,95 -61,191 -92,286l-67 263 165 8z"/>
  <path class="fil1" d="M1037 1765c19,7 38,18 57,22 26,6 51,4 68,-25 22,-35 43,-108 49,-158 5,-44 -3,-61 -30,-78 -21,-13 -51,-18 -82,-29 -16,-6 -22,36 -9,35 24,2 49,2 76,21 18,12 21,27 16,52 -5,26 -16,60 -21,78 -15,58 -29,79 -55,72 -13,-3 -27,-12 -52,-27 -15,-9 -40,29 -17,37z"/>
  <polygon class="fil7" points="1869,1257 1670,2001 1703,2002 1901,1258 "/>
  <path class="fil32" d="M1200 1213c11,0 19,-7 30,-29 4,-10 12,-29 16,-41 3,-9 9,-27 10,-35 4,-27 -5,-36 -17,-36 -15,0 -38,27 -49,66 -6,22 -10,45 -7,58 2,10 11,17 17,17z"/>
  <path class="fil33" d="M1189 1197c10,0 19,-7 29,-29 5,-10 13,-29 16,-40 3,-10 10,-28 11,-36 4,-26 -6,-35 -17,-35 -15,0 -38,26 -50,66 -6,21 -9,44 -6,57 2,10 10,17 17,17z"/>
  <path class="fil32" d="M1742 1222c11,0 20,-7 30,-29 4,-9 12,-28 15,-39 2,-10 9,-28 10,-36 2,-26 -8,-34 -20,-34 -16,0 -39,26 -49,65 -6,21 -8,44 -5,56 3,10 12,17 19,17z"/>
  <path class="fil33" d="M1730 1207c11,0 20,-7 30,-29 5,-10 13,-28 16,-40 2,-9 8,-27 9,-35 3,-26 -7,-35 -20,-35 -15,0 -39,26 -49,65 -5,21 -8,44 -4,57 2,10 11,17 18,17z"/>
  <path class="fil32" d="M1909 1218c11,0 20,-7 30,-29 4,-9 11,-27 14,-39 2,-9 8,-27 8,-35 2,-25 -9,-34 -22,-34 -17,0 -40,26 -49,64 -5,21 -6,44 -2,56 3,10 13,17 21,17z"/>
  <path class="fil33" d="M1897 1202c12,0 21,-7 30,-28 5,-10 12,-28 15,-40 2,-9 8,-27 8,-34 2,-26 -10,-35 -22,-35 -17,0 -41,26 -49,65 -5,21 -7,43 -3,55 4,10 14,17 21,17z"/>
  <path class="fil32" d="M2080 1224c10,0 17,-7 25,-28 3,-9 8,-27 10,-38 2,-9 6,-27 6,-35 0,-25 -10,-34 -20,-34 -15,0 -34,26 -40,64 -3,21 -3,43 1,55 3,10 12,16 18,16z"/>
  <path class="fil33" d="M2069 1209c9,0 17,-7 24,-28 4,-10 9,-28 11,-39 1,-9 6,-27 6,-34 0,-26 -10,-34 -21,-34 -14,0 -33,26 -39,63 -4,21 -4,43 0,55 3,10 12,17 19,17z"/>
  <path class="fil32" d="M2725 1235c8,0 14,-7 20,-28 2,-9 6,-27 7,-38 1,-9 4,-26 3,-34 0,-24 -9,-33 -17,-33 -12,0 -26,25 -30,62 -2,21 -2,43 2,55 3,9 10,16 15,16z"/>
  <path class="fil33" d="M2714 1219c8,0 14,-7 19,-28 2,-9 6,-26 7,-38 1,-8 4,-26 4,-33 -1,-25 -9,-34 -18,-34 -11,0 -26,26 -30,63 -2,20 -1,42 2,54 3,10 11,16 16,16z"/>
  <path class="fil32" d="M2935 1023c-582,6 -1141,-2 -1703,-24 245,-51 1350,-87 1703,24z"/>
  <path class="fil32" d="M2069 147c-252,68 -389,254 -497,469 -27,55 -58,141 13,170 47,20 109,29 178,35 168,13 385,7 554,-1 95,-4 165,-8 228,-27 140,-43 197,-143 284,-248 152,-183 365,-374 469,-426 -164,90 -226,128 -362,270 -119,123 -241,267 -308,336 -39,41 -122,54 -202,61 -215,19 -466,20 -686,5 -94,-6 -129,-20 -142,-65 -25,-87 76,-265 184,-385 98,-108 181,-148 287,-194z"/>
  <path class="fil7" d="M1188 1243l1557 32c78,2 151,98 134,178l-93 454c-16,79 -73,141 -152,138l-1670 -77c-79,-3 -102,-29 -80,-107l142 -498c22,-78 83,-122 162,-120zm12 21l1522 35c73,2 141,91 124,164l-94 420c-16,73 -68,131 -140,128l-1621 -73c-73,-4 -95,-28 -74,-100l133 -463c21,-72 77,-112 150,-111z"/>
  <polygon class="fil34" points="2960,2298 3135,2408 3249,2425 3037,2131 "/>
  <path class="fil1" d="M2978 2103l44 8c19,3 35,15 35,34l4 112c0,19 -16,31 -35,35l-47 10c-19,4 -35,-16 -35,-35l-1 -129c0,-19 16,-38 35,-35z"/>
  <path class="fil1" d="M3017 2170l56 0c12,0 22,-9 22,-21l0 0c0,-12 -10,-22 -22,-22l-56 0c-12,0 -22,10 -22,22l0 0c0,12 10,21 22,21z"/>
  <path class="fil16" d="M3877 918c0,-82 -28,-218 -39,-268 -11,-50 -28,-99 -54,-143 -25,-41 -84,-60 -126,-34 -25,15 -24,59 -17,76 44,120 112,258 197,382 40,57 39,28 39,-13z"/>
  <path class="fil1" d="M3021 2267l56 0c12,0 22,-9 22,-21l0 0c0,-12 -10,-22 -22,-22l-56 0c-12,0 -22,10 -22,22l0 0c0,12 10,21 22,21z"/>
  <path class="fil16" d="M3909 910c-11,-70 -17,-280 -69,-416 -30,-81 -80,-129 -146,-122 -65,7 -103,36 -119,53 -17,17 -6,29 16,17 71,-40 130,-35 169,-10 118,78 116,356 149,478z"/>
  <path class="fil1" d="M3869 906c0,-78 -25,-205 -36,-252 -11,-47 -26,-93 -51,-134 -23,-39 -78,-57 -118,-32 -23,14 -22,55 -16,71 42,113 105,242 185,358 37,54 36,26 36,-11z"/>
  <path class="fil35" d="M3852 806c-51,-66 -168,-215 -194,-245 -10,-12 -6,-51 14,-64 36,-22 85,-6 105,29 23,37 36,77 46,119 0,4 28,157 29,161z"/>
  <path class="fil7" d="M2984 2039c90,-22 152,-37 243,-59 30,-6 38,-39 42,-95 12,-148 15,-273 14,-426 0,-71 -8,-118 -61,-122 -52,-3 -103,-5 -154,-8 -52,6 -74,31 -83,66 -25,137 -50,273 -75,410 -22,143 -9,253 74,234z"/>
  <path class="fil1" d="M2993 2010c83,-20 139,-34 223,-54 27,-6 35,-36 39,-87 10,-137 13,-251 13,-391 -1,-65 -8,-109 -57,-112 -47,-3 -94,-5 -141,-7 -47,5 -68,28 -76,60 -23,125 -46,251 -69,376 -20,132 -8,232 68,215z"/>
  <path class="fil7" d="M2999 1404l1 0 -16 607c-8,1 -16,1 -22,-2l13 -485 19 -105c1,-5 3,-10 5,-15z"/>
  <path class="fil1" d="M3264 2694c24,0 53,-47 54,-78l9 -181c1,-28 -22,-22 -40,-18 -20,4 -31,41 -32,62l-7 200c0,9 6,15 16,15z"/>
  <path class="fil7" d="M3283 2645c11,0 23,-32 24,-53l4 -122c0,-19 -10,-15 -18,-12 -9,3 -14,28 -14,42l-3 134c0,7 2,11 7,11z"/>
  <path class="fil17" d="M2723 2429c47,-10 516,-90 506,-43 -4,17 -110,35 -224,64 -111,29 -230,67 -232,66 -14,-22 -50,-51 -50,-87z"/>
  <path class="fil36" d="M2870 2742c21,0 44,-22 44,-45 0,-24 -25,-46 -49,-44 -24,2 -27,19 -27,42 0,24 11,47 32,47z"/>
  <path class="fil37" d="M2861 2710c17,3 38,-8 41,-22 4,-14 -11,-31 -30,-33 -19,-1 -24,9 -28,23 -4,14 1,29 17,32z"/>
  <path class="fil33" d="M2827 2785c155,-7 98,82 24,74 -1,-27 -4,-53 -24,-74z"/>
  <path class="fil18" d="M3720 2295l171 -21c34,-5 41,26 40,61l-12 246c-1,35 -28,66 -63,70l-149 19c-35,5 -38,-7 -38,-42l2 -275c0,-35 14,-54 49,-58z"/>
  <path class="fil15" d="M3723 2303l164 -21c33,-4 40,26 38,59l-11 236c-1,33 -27,62 -60,67l-144 18c-33,4 -36,-7 -36,-41l2 -263c0,-33 14,-51 47,-55z"/>
  <path class="fil16" d="M3773 1305l112 0c30,0 47,21 49,52 15,242 19,485 6,728 -2,30 -27,70 -57,74l-110 15c-30,4 -50,-22 -48,-52 15,-254 12,-508 -8,-762 -2,-30 25,-55 56,-55z"/>
  <path class="fil15" d="M3765 1318l100 0c27,0 42,21 43,51 14,235 17,470 5,705 -1,29 -23,68 -50,72l-98 15c-26,4 -44,-22 -42,-51 13,-246 11,-492 -7,-738 -2,-29 22,-54 49,-54z"/>
  <path class="fil17" d="M3766 1342l87 0c24,0 38,19 39,47 12,221 15,442 4,662 -1,28 -20,64 -44,68l-86 14c-24,4 -39,-20 -37,-48 12,-231 9,-462 -6,-693 -2,-28 19,-50 43,-50z"/>
  <path class="fil15" d="M3783 1353l83 0c23,0 36,20 37,47 11,215 14,431 4,646 -1,27 -19,63 -42,66l-82 14c-22,3 -37,-20 -35,-47 11,-226 9,-451 -6,-677 -2,-26 18,-49 41,-49z"/>
  <path class="fil1" d="M3858 1465c15,3 26,15 27,48 7,155 7,289 1,444 -2,33 -16,44 -32,49 -12,4 -23,7 -37,5 -17,-1 -31,-11 -31,-40 -4,-163 -11,-287 -11,-448 0,-37 13,-52 36,-57 13,-3 35,-4 47,-1z"/>
  <path class="fil7" d="M3852 1477c12,3 21,15 22,47 6,147 5,275 1,423 -1,31 -13,42 -26,47 -9,4 -18,6 -28,5 -14,-2 -25,-11 -25,-39 -3,-155 -9,-274 -9,-427 0,-36 10,-50 28,-54 11,-3 28,-5 37,-2z"/>
  <path class="fil16" d="M3259 2838c19,2 46,-9 49,-36 238,-44 464,-89 702,-132 31,-6 15,47 -30,55 -59,11 -121,24 -182,35 -154,29 -287,53 -441,82 -43,7 -77,15 -98,-4z"/>
  <path class="fil17" d="M3259 3057c-10,-30 -20,-59 -30,-89 -8,-15 -12,-23 -20,-38 135,-4 228,-28 232,134 -44,0 -89,0 -133,0 -16,-2 -32,-5 -49,-7z"/>
  <path class="fil16" d="M2971 3111c-10,-55 -21,-111 -52,-131 97,-16 194,-32 292,-47 35,24 48,69 48,124 -96,18 -192,36 -288,54z"/>
  <path class="fil16" d="M2971 3111l288 -54 182 7 -274 57c-87,19 -120,36 -196,-10z"/>
  <path class="fil38" d="M3002 3283c17,76 29,159 34,278l380 -101c0,-3 9,-89 30,-168 4,-18 20,-30 26,-46 14,-43 19,-81 20,-84l-490 121z"/>
  <path class="fil39" d="M3503 3160l466 -105c-16,49 -46,85 -59,123 -15,46 -25,102 -32,148l-449 130c14,-57 17,-101 32,-158 5,-20 23,-52 28,-71 5,-22 10,-45 14,-67z"/>
  <path class="fil40" d="M3984 3054c-58,124 -61,100 -91,263l213 -67c23,-125 52,-86 86,-131 7,-9 5,-9 9,-20 11,-25 26,-66 38,-98l-255 53z"/>
  <path class="fil17" d="M4232 3271l-116 -18c8,-48 17,-70 33,-87 22,-23 39,-20 48,-34 18,-26 24,-68 48,-127 -13,86 -26,178 -13,266z"/>
  <path class="fil16" d="M3993 2944c-1,-13 0,-27 -1,-41 55,-12 109,-24 164,-36 34,-3 97,-32 117,-1 -74,25 -188,60 -280,78z"/>
  <path class="fil17" d="M4137 2871c9,-22 19,-44 29,-66 119,-15 114,-22 107,61 -46,2 -91,4 -136,5z"/>
  <path class="fil16" d="M3991 2924c2,-46 -3,-76 -20,-81l195 -38 49 64 -224 55z"/>
  <path class="fil4" d="M3247 1549l81 -3c39,-1 65,17 64,37l-6 426c0,19 -17,43 -37,42l-134 -3c-20,-1 -39,-24 -38,-44l13 -411c1,-20 11,-43 57,-44z"/>
  <path class="fil1" d="M3083 2228c23,-2 74,-13 93,-31 17,-14 26,-26 59,-69 28,-37 38,-72 79,-72 24,0 44,-1 56,-4 17,-5 13,-27 17,-43 -15,13 -167,9 -210,3 2,13 5,26 17,34 8,5 19,4 32,4 1,10 -47,73 -87,103 -17,13 -54,8 -61,10 -24,7 -24,67 5,65z"/>
  <path class="fil16" d="M4059 1196c16,501 9,978 -37,1475 -31,9 -61,10 -91,19 60,-504 64,-986 30,-1500 33,1 66,2 98,6z"/>
  <path class="fil17" d="M3022 3563l65 21c41,13 73,29 76,47l1076 -321c13,-4 13,-16 10,-24 -4,-8 -14,-11 -32,-13l-119 -10 -1076 300z"/>
  <path class="fil41" d="M4039 383l267 907c27,76 46,166 124,289l492 936 -535 76 -96 -4 -260 -22 8 -2182z"/>
  <path class="fil42" d="M3190 1608c0,0 103,236 184,431 7,-8 12,-20 12,-30l6 -426c1,-20 -25,-38 -64,-37l-81 3c-46,1 -56,24 -57,44l0 15 0 0z"/>
  <path class="fil35" d="M1917 1306l779 14c72,2 139,84 124,151l-87 393c-15,68 -59,137 -151,125l-674 -645 9 -38z"/>
  <path class="fil35" d="M1206 1284l623 15 -166 650 -84 -4 -515 -549c21,-69 67,-114 142,-112z"/>
  <path class="fil43" d="M62 2133l197 -118c-11,-7 -30,-8 -57,-6l-88 8c-39,3 -48,12 -50,41 -2,17 -4,48 -3,66 0,3 0,6 1,9z"/>
  <path class="fil43" d="M2027 2202c46,-33 179,-131 221,-156 -8,-6 -19,-10 -32,-9l-149 7c-35,2 -59,23 -60,59l-2 51c-1,22 7,39 22,48z"/>
  <path class="fil44" d="M2311 49l123 64c1,0 2,0 4,0 -1,-14 -10,-44 -19,-65 -13,-29 -27,-49 -62,-48 -28,0 -43,29 -46,49z"/>
  <path class="fil45" d="M3788 1653l90 103c0,-76 -1,-151 -4,-232 -1,-32 -10,-44 -22,-47 -9,-3 -26,-1 -37,2 -18,4 -28,18 -28,54 0,42 1,81 1,120z"/>
  <path class="fil18" d="M3036 3561l385 -260 -399 95c7,55 12,110 14,165z"/>
  <path class="fil18" d="M3437 3445l464 -265c0,0 -418,108 -426,105 -9,-4 -38,160 -38,160z"/>
  <path class="fil18" d="M3898 3314l275 -183 -241 43c-14,40 -24,88 -34,140z"/>
  <path class="fil46" d="M4990 327c267,290 1170,1332 1524,1741l384 -53 -21 -1248 -1887 -440z"/>
  <path class="fil47" d="M115 3518l-48 -100 -1 -2c-3,1 -7,3 -9,5 -1,1 -2,2 -2,3 -7,9 -6,25 -5,40l7 48c4,21 17,34 28,39l51 16c1,0 2,0 3,1l-24 -50z"/>
  <path class="fil47" d="M1897 3679l-96 -134c-16,10 -27,26 -35,46 -6,16 -9,32 -10,49 -2,28 14,51 34,50l67 -4 13 0c11,-1 20,-3 27,-6l0 -1z"/>
  <path class="fil43" d="M213 2918c-13,-33 -32,-77 -58,-124 -8,-13 -9,-18 -18,-23 -11,-6 -23,12 -34,30 -39,62 -74,187 -71,261 0,4 0,9 0,13l181 -157z"/>
  <path class="fil48" d="M1801 3275l441 -365c-32,-29 -86,-34 -135,-21 -75,20 -140,46 -203,79 -63,34 -120,70 -167,125 -26,31 -48,86 -70,149 -13,35 -13,47 34,42 33,-3 67,-6 100,-9z"/>
  <path class="fil49" d="M4244 214l-170 0c-6,0 -12,5 -12,11l0 0c0,7 6,12 12,12l170 0c7,0 12,-5 12,-12l0 0c0,-6 -5,-11 -12,-11z"/>
  <path class="fil49" d="M4244 262l-170 0c-6,0 -12,6 -12,12l0 0c0,7 6,12 12,12l170 0c7,0 12,-5 12,-12l0 0c0,-6 -5,-12 -12,-12z"/>
  <path class="fil49" d="M4244 311l-170 0c-6,0 -12,5 -12,12l0 0c0,6 6,12 12,12l170 0c7,0 12,-6 12,-12l0 0c0,-7 -5,-12 -12,-12z"/>
  <path class="fil49" d="M4244 360l-170 0c-6,0 -12,5 -12,11l0 0c0,7 6,12 12,12l170 0c7,0 12,-5 12,-12l0 0c0,-6 -5,-11 -12,-11z"/>
  <path class="fil4" d="M1527 3420c-131,11 -260,15 -426,12 -374,-6 -693,-51 -812,-110 -19,-9 -8,-21 -3,-28 4,-5 7,-10 7,-13 4,-13 29,29 118,45 87,17 248,47 450,60 252,16 565,11 676,-14 29,-6 29,-9 50,-19 15,-8 36,-7 40,-2 2,2 -2,-2 -12,4 -14,4 -23,14 -29,20 -18,18 -11,40 -59,45z"/>
 </g>
</svg>
