<?xml version="1.0" encoding="UTF-8"?>
<!DOCTYPE svg PUBLIC "-//W3C//DTD SVG 1.1//EN" "http://www.w3.org/Graphics/SVG/1.1/DTD/svg11.dtd">
<svg xmlns="http://www.w3.org/2000/svg" xml:space="preserve" width="134px" height="28px" version="1.1" style="shape-rendering:geometricPrecision; text-rendering:geometricPrecision; image-rendering:optimizeQuality; fill-rule:evenodd; clip-rule:evenodd"
viewBox="0 0 2540 532"
 xmlns:xlink="http://www.w3.org/1999/xlink">
 <defs>
  <style type="text/css">
   <![CDATA[
    .fil0 {fill:white}
    .fil1 {fill:white;fill-rule:nonzero}
   ]]>
  </style>
 </defs>
 <g id="Layer_x0020_1">
  <metadata id="CorelCorpID_0Corel-Layer"/>
  <g id="_618020128">
   <path id="path4347" class="fil0" d="M2374 377l111 0 0 -64 -25 0 0 -261 -125 0 0 64 34 0 0 62c-20,-16 -43,-28 -68,-28 -72,0 -105,50 -105,117 0,60 38,117 102,117 30,1 55,-11 76,-33l0 26zm-43 -71c-23,0 -41,-18 -41,-42 0,-22 18,-42 41,-42 23,0 43,19 43,42 0,24 -20,42 -43,42z"/>
   <g>
    <path id="path4349" class="fil0" d="M291 143l0 -91 -81 0 0 24c-26,-24 -51,-32 -85,-32 -80,0 -125,51 -125,104 0,69 52,90 104,100 51,10 103,10 103,39 0,22 -25,27 -46,27 -15,0 -28,-3 -39,-10 -12,-6 -21,-16 -28,-29l-83 0 0 102 81 0 0 -26c22,25 55,33 86,33 70,0 123,-37 123,-109 0,-74 -51,-96 -102,-106 -52,-11 -103,-10 -103,-38 0,-18 22,-23 40,-23 17,0 32,3 44,9 12,6 22,15 30,26l81 0zm0 0l0 0 0 0z"/>
   </g>
   <g>
    <path id="path4351" class="fil0" d="M428 157l-106 0 0 64 24 0 0 92 -24 0 0 64 139 0 0 -64 -24 0 0 -69c0,-21 12,-26 27,-26 17,0 26,7 26,26l0 133 114 0 0 -64 -23 0 0 -69c0,-23 10,-27 25,-27 18,0 27,8 27,26l0 134 115 0 0 -64 -24 0 0 -92c0,-50 -27,-71 -69,-71 -29,0 -56,10 -78,30 -17,-21 -37,-31 -66,-30 -31,-1 -62,12 -83,35l0 -28zm0 0l0 0 0 0z"/>
   </g>
   <g>
    <path id="path4353" class="fil0" d="M914 313l-25 0 0 -156 -116 0 0 64 25 0 0 92 -25 0 0 64 141 0 0 -64zm0 0l0 0 0 0z"/>
   </g>
   <g>
    <path id="path4355" class="fil0" d="M1758 313l-25 0 0 -156 -117 0 0 66 26 0 0 90 -26 0 0 64 142 0 0 -64zm0 0l0 0 0 0z"/>
   </g>
   <g>
    <path id="path4357" class="fil0" d="M1094 116l24 0 0 197 -25 0 0 64 142 0 0 -64 -26 0 0 -67c0,-27 20,-32 33,-32 14,0 29,5 29,32l0 131 120 0 0 -64 -26 0 0 -101c0,-32 -10,-62 -72,-62 -24,0 -44,2 -84,16l0 -114 -115 0 0 64zm0 0l0 0 0 0z"/>
   </g>
   <g>
    <path id="path4359" class="fil0" d="M1944 307c-8,14 -23,20 -38,20 -29,0 -44,-15 -43,-42l167 0c0,-89 -35,-135 -128,-135 -73,0 -133,41 -133,119 0,57 34,115 141,115 44,0 94,-18 113,-61l-79 -16zm-83 -58c0,-24 15,-44 44,-44 29,0 38,18 38,44l-82 0zm0 0l0 0 0 0z"/>
   </g>
   <g>
    <path id="path4361" class="fil0" d="M2041 116l27 0 0 197 -27 0 0 64 144 0 0 -64 -26 0 0 -261 -118 0 0 64zm0 0l0 0 0 0z"/>
   </g>
   <path id="path4363" class="fil0" d="M840 132c-29,0 -50,-23 -50,-51 0,-27 22,-51 50,-51 27,0 51,23 51,51 0,28 -24,51 -51,51z"/>
   <g>
    <path id="path4365" class="fil0" d="M1037 59l0 98 30 0 0 64 -30 0 0 67c0,17 4,20 17,20l13 0 0 69 -66 0c-36,0 -55,-17 -55,-52l0 -104 -26 0 0 -64 26 0 0 -57c29,0 51,-15 57,-41l34 0zm0 0l0 0 0 0z"/>
   </g>
   <path id="path4367" class="fil1" d="M1566 123c-4,12 -8,25 -11,34l38 0 0 66 -52 0c-21,73 -37,129 -51,172 -13,40 -25,65 -42,88 -26,37 -68,47 -101,49 -20,1 -48,-4 -58,-14l20 -45c5,1 12,2 19,2 16,0 34,-5 48,-23 15,-20 23,-43 35,-86 19,-63 41,-143 41,-143l-54 0 0 -66 73 0c5,-16 15,-39 24,-60 0,0 11,-22 28,-44 19,-23 40,-41 71,-49 25,-6 46,-4 65,2 23,7 40,25 49,41 10,15 15,40 8,58 -7,19 -25,29 -40,28 -15,-2 -27,-11 -32,-22 -6,-12 -4,-25 -2,-29 2,-3 7,-8 7,-8 0,0 -1,-6 -8,-10 -4,-2 -20,-7 -40,8 -19,15 -29,33 -35,51z"/>
   <path id="path4977" class="fil0" d="M2514 56c-15,0 -26,10 -26,23 0,13 11,23 26,23 14,0 26,-10 26,-23 0,-13 -12,-23 -26,-23zm-1 3c13,0 23,9 23,20 0,11 -10,20 -22,20 -13,0 -22,-9 -22,-20 0,-11 9,-20 21,-20zm-9 33l5 0 0 -11c0,0 1,0 1,0 1,0 1,0 2,0 6,9 8,11 13,11 2,0 2,0 2,0l1 -2c-4,0 -6,-2 -11,-10 4,-1 6,-4 6,-7 0,-2 -1,-5 -3,-6 -2,-1 -4,-1 -8,-1 -1,0 -2,0 -4,0 -2,0 -2,0 -4,0l0 26zm5 -23c1,0 2,0 3,0 4,0 6,1 6,4 0,4 -2,5 -7,5 -1,0 -1,0 -2,0l0 -9z"/>
  </g>
 </g>
</svg>
